<?xml version="1.0" encoding="utf-8"?>
<svg width="250" height="150" viewBox="50 42 80 78" fill="none" xmlns="http://www.w3.org/2000/svg">
  <defs>
    <style>.cls-1{font-size:12px;}.cls-1,.cls-5,.cls-9{font-family:ArialMT, Arial;}.cls-2{fill:#ff5f4f;}.cls-3{fill:none;}.cls-4,.cls-5,.cls-6,.cls-7,.cls-8{isolation:isolate;}.cls-5,.cls-9{font-size:11.22px;}.cls-6{font-size:38.19px;}.cls-10,.cls-6,.cls-7,.cls-8{fill:#ff997a;}.cls-6,.cls-7,.cls-8{font-family:Impact;}.cls-7{font-size:38.19px;}.cls-8{font-size:38.19px;}</style>
  </defs>
  <circle class="cls-2" cx="67.093" cy="81.086" r="38.751" style=""/>
  <path id="SVGID_1_" class="cls-3" d="M 93.388 99.092 C 89.033 105.485 82.29 109.723 74.422 110.987 C 58.172 113.61 42.11 102.651 38.598 86.589 C 36.889 78.791 38.363 70.994 42.719 64.579 C 47.074 58.163 53.817 53.949 61.684 52.684 C 77.934 50.062 93.997 61.02 97.509 77.082 C 99.218 84.879 97.743 92.7 93.388 99.092 Z" style=""/>
  <g class="cls-4" transform="matrix(0.234148, 0, 0, 0.234148, -4.555662, -14.048269)" style="">
    <text class="cls-5" transform="translate(184.26 392.06) rotate(-85.2)" style="white-space: pre;"> </text>
    <text class="cls-6" transform="matrix(0.19, -0.98, 0.98, 0.19, 184.11, 388.89)" style="white-space: pre;">A</text>
    <text class="cls-6" transform="translate(187.66 369.75) rotate(-68.91)" style="white-space: pre;">N</text>
    <text class="cls-7" transform="translate(195.12 350.39) rotate(-58.09)" style="white-space: pre;">D</text>
    <text class="cls-7" transform="matrix(0.67, -0.74, 0.74, 0.67, 206.34, 332.44)" style="white-space: pre;">R</text>
    <text class="cls-7" transform="matrix(0.77, -0.64, 0.64, 0.77, 220.45, 317.47)" style="white-space: pre;">I</text>
    <text class="cls-7" transform="matrix(0.84, -0.54, 0.54, 0.84, 228.72, 310.13)" style="white-space: pre;">U</text>
    <text class="cls-6" transform="matrix(0.92, -0.39, 0.39, 0.92, 246.41, 298.95)" style="white-space: pre;">S</text>
    <text class="cls-6" transform="translate(264.73 291.59) rotate(-16.8)" style="white-space: pre;"> </text>
    <text class="cls-7" transform="matrix(0.97, -0.24, 0.24, 0.97, 271.18, 289.64)" style="white-space: pre;"> </text>
    <text class="cls-6" transform="matrix(0.98, -0.19, 0.19, 0.98, 277.72, 288.04)" style="white-space: pre;"> </text>
    <text class="cls-7" transform="translate(284.33 286.79) rotate(-7.68)" style="white-space: pre;"> </text>
    <text class="cls-6" transform="translate(291.01 285.89) rotate(-4.69)" style="white-space: pre;"> </text>
    <text class="cls-7" transform="translate(297.72 285.34) rotate(-1.71)" style="white-space: pre;"> </text>
    <text class="cls-7" transform="translate(304.45 285.14) rotate(1.25)" style="white-space: pre;"> </text>
    <text class="cls-7" transform="matrix(1, 0.07, -0.07, 1, 311.18, 285.29)" style="white-space: pre;"> </text>
    <text class="cls-6" transform="matrix(0.99, 0.12, -0.12, 0.99, 317.9, 285.78)" style="white-space: pre;"> </text>
    <text class="cls-8" transform="translate(324.58 286.62) rotate(10.13)" style="white-space: pre;"> </text>
    <text class="cls-6" transform="matrix(0.97, 0.23, -0.23, 0.97, 331.21, 287.81)" style="white-space: pre;"> </text>
    <text class="cls-8" transform="translate(337.77 289.33) rotate(16.08)" style="white-space: pre;"> </text>
    <text class="cls-8" transform="translate(344.24 291.2) rotate(19.07)" style="white-space: pre;"> </text>
    <text class="cls-7" transform="translate(350.61 293.4) rotate(22.09)" style="white-space: pre;"> </text>
    <text class="cls-6" transform="translate(356.85 295.93) rotate(25.14)" style="white-space: pre;"> </text>
    <text class="cls-6" transform="matrix(0.85, 0.52, -0.52, 0.85, 363.15, 298.45)" style="white-space: pre;">G</text>
    <text class="cls-7" transform="matrix(0.77, 0.64, -0.64, 0.77, 380.99, 309.65)" style="white-space: pre;">L</text>
    <text class="cls-6" transform="matrix(0.67, 0.75, -0.75, 0.67, 392.34, 318.81)" style="white-space: pre;">O</text>
    <text class="cls-8" transform="matrix(0.53, 0.85, -0.85, 0.53, 406.31, 334.38)" style="white-space: pre;">B</text>
    <text class="cls-6" transform="matrix(0.37, 0.93, -0.93, 0.37, 417.34, 352.41)" style="white-space: pre;">Y</text>
    <text class="cls-7" transform="translate(424.17 369.2) rotate(77.88)" style="white-space: pre;">S</text>
    <text class="cls-9" transform="translate(427.89 388.59) rotate(83.84)" style="white-space: pre;"> </text>
  </g>
  <circle class="cls-10" cx="67.093" cy="81.086" r="27.044" style=""/>
  <path class="cls-2" d="M 48.034 66.803 C 48.174 66.616 48.221 66.522 48.361 66.335 C 48.268 66.405 48.221 66.428 48.128 66.499 L 48.479 66.03 C 48.385 66.101 48.338 66.124 48.244 66.194 C 48.666 65.656 48.9 65.398 49.345 64.907 C 49.421 64.85 49.491 64.788 49.556 64.719 C 49.696 64.556 49.79 64.462 49.931 64.298 C 50.024 64.228 50.047 64.181 50.141 64.111 C 50.282 63.946 50.375 63.853 50.516 63.689 C 50.773 63.455 50.89 63.338 51.148 63.104 C 51.008 63.267 50.937 63.361 50.773 63.549 C 50.849 63.492 50.919 63.429 50.984 63.361 C 50.843 63.549 50.773 63.619 50.633 63.806 C 50.705 63.744 50.783 63.689 50.867 63.642 C 50.445 64.204 50.258 64.485 49.884 65.07 C 49.801 65.131 49.715 65.185 49.626 65.235 C 49.511 65.389 49.409 65.554 49.321 65.726 C 49.244 65.787 49.157 65.834 49.064 65.867 C 48.947 66.054 48.877 66.147 48.76 66.359 C 48.479 66.522 48.338 66.616 48.034 66.803 Z M 48.619 66.171 C 48.806 66.054 48.9 65.984 49.111 65.867 C 49.521 65.218 49.967 64.593 50.445 63.993 C 50.352 64.064 50.305 64.111 50.211 64.181 C 50.352 63.993 50.422 63.923 50.586 63.736 C 50.422 63.877 50.329 63.97 50.164 64.111 C 49.556 64.79 49.275 65.141 48.713 65.867 C 48.806 65.796 48.853 65.773 48.947 65.702 C 48.83 65.853 48.72 66.009 48.619 66.171 Z" style=""/>
  <path class="cls-2" d="M 49.813 65.773 C 49.931 65.562 49.977 65.469 50.094 65.258 L 50.609 64.977 C 51.055 64.157 51.312 63.759 51.803 62.963 C 51.71 63.033 51.663 63.057 51.569 63.127 C 51.71 62.94 51.757 62.846 51.897 62.659 C 51.991 62.588 52.038 62.565 52.131 62.495 C 52.272 62.308 52.319 62.214 52.459 62.027 C 52.646 61.886 52.74 61.816 52.904 61.675 C 52.242 62.64 51.648 63.649 51.124 64.696 C 51.299 64.601 51.479 64.515 51.663 64.438 C 51.569 64.649 51.499 64.766 51.406 64.977 C 50.773 65.281 50.445 65.445 49.813 65.773 Z" style=""/>
  <path class="cls-2" d="M 52.248 64.602 C 52.342 64.368 52.389 64.274 52.482 64.04 L 52.201 64.157 C 52.278 63.973 52.364 63.794 52.459 63.619 C 52.366 63.651 52.28 63.699 52.201 63.759 C 52.529 63.127 52.693 62.799 53.021 62.19 C 53.099 62.13 53.186 62.083 53.279 62.05 C 53.396 61.839 53.443 61.746 53.559 61.535 C 53.638 61.475 53.724 61.427 53.817 61.395 C 53.934 61.184 53.981 61.09 54.098 60.879 C 54.379 60.692 54.543 60.598 54.824 60.434 C 54.729 60.601 54.643 60.773 54.567 60.95 C 54.65 60.898 54.736 60.851 54.824 60.809 C 54.73 61.02 54.66 61.137 54.567 61.348 C 54.657 61.31 54.744 61.263 54.824 61.207 C 54.52 61.863 54.379 62.19 54.122 62.869 L 53.841 62.987 C 53.747 63.22 53.7 63.338 53.606 63.549 L 53.325 63.666 C 53.232 63.9 53.185 64.017 53.091 64.228 C 52.764 64.391 52.576 64.462 52.248 64.602 Z M 52.764 63.923 C 52.974 63.83 53.091 63.783 53.325 63.689 C 53.7 62.776 53.887 62.331 54.309 61.488 C 54.215 61.535 54.145 61.582 54.051 61.629 C 54.145 61.418 54.215 61.301 54.309 61.113 C 54.098 61.23 54.004 61.301 53.817 61.418 C 53.372 62.237 53.138 62.659 52.74 63.525 C 52.828 63.491 52.914 63.451 52.998 63.408 C 52.906 63.573 52.828 63.745 52.764 63.923 Z" style=""/>
  <path class="cls-2" d="M 54.543 63.689 C 54.603 63.491 54.673 63.295 54.754 63.104 L 54.473 63.22 C 54.567 62.987 54.59 62.869 54.683 62.635 L 54.403 62.753 C 54.66 62.074 54.801 61.722 55.105 61.067 C 55.199 61.02 55.269 60.996 55.362 60.95 C 55.456 60.738 55.503 60.622 55.597 60.411 C 55.69 60.364 55.76 60.341 55.854 60.294 C 55.948 60.083 55.995 59.966 56.088 59.755 C 56.393 59.592 56.557 59.521 56.861 59.381 C 56.777 59.562 56.707 59.75 56.651 59.943 C 56.738 59.908 56.824 59.869 56.908 59.826 C 56.814 60.06 56.791 60.153 56.697 60.387 L 56.978 60.271 C 56.744 60.95 56.627 61.301 56.393 62.027 C 56.276 62.074 56.206 62.074 56.112 62.121 C 56.041 62.354 55.995 62.472 55.925 62.729 C 55.807 62.776 55.737 62.776 55.62 62.823 C 55.55 63.057 55.503 63.174 55.433 63.432 C 55.13 63.496 54.833 63.581 54.543 63.689 Z M 55.035 62.987 C 55.269 62.893 55.386 62.869 55.62 62.776 C 55.925 61.816 56.088 61.348 56.416 60.434 L 56.135 60.551 C 56.216 60.368 56.286 60.18 56.346 59.99 C 56.168 60.061 55.995 60.147 55.831 60.247 C 55.456 61.113 55.269 61.558 54.941 62.495 L 55.222 62.378 C 55.174 62.585 55.111 62.788 55.035 62.987 Z" style=""/>
  <path class="cls-2" d="M 56.955 62.94 C 57.025 62.682 57.049 62.565 57.118 62.308 C 57.014 62.328 56.912 62.359 56.814 62.401 C 56.885 62.167 56.908 62.027 56.978 61.792 C 56.861 61.839 56.791 61.839 56.674 61.886 C 56.885 61.16 57.002 60.809 57.236 60.106 L 57.517 59.99 C 57.587 59.755 57.634 59.639 57.704 59.404 L 57.985 59.287 C 58.055 59.053 58.102 58.936 58.172 58.725 C 58.5 58.608 58.664 58.538 58.992 58.421 C 58.921 58.655 58.898 58.772 58.828 59.006 C 58.945 58.96 58.992 58.96 59.109 58.913 C 59.039 59.147 59.015 59.264 58.945 59.498 C 59.042 59.477 59.136 59.446 59.226 59.404 C 59.039 60.13 58.945 60.481 58.781 61.23 C 58.664 61.254 58.594 61.277 58.476 61.301 C 58.43 61.558 58.383 61.675 58.336 61.933 C 58.219 61.956 58.149 61.98 58.032 62.003 C 57.985 62.261 57.938 62.378 57.891 62.635 C 57.59 62.768 57.277 62.87 56.955 62.94 Z M 57.423 62.237 C 57.657 62.167 57.797 62.143 58.032 62.074 C 58.266 61.067 58.383 60.575 58.664 59.639 C 58.547 59.685 58.5 59.685 58.383 59.732 C 58.454 59.498 58.476 59.381 58.547 59.147 C 58.356 59.207 58.169 59.276 57.985 59.357 C 57.681 60.271 57.54 60.762 57.283 61.722 C 57.4 61.675 57.47 61.675 57.587 61.629 C 57.517 61.863 57.493 61.98 57.423 62.237 Z" style=""/>
  <path class="cls-2" d="M 59.484 62.354 C 59.531 62.097 59.554 61.956 59.6 61.699 C 59.484 61.722 59.413 61.746 59.296 61.769 C 59.343 61.511 59.367 61.395 59.413 61.137 C 59.296 61.16 59.226 61.184 59.109 61.207 C 59.273 60.458 59.343 60.083 59.531 59.357 C 59.628 59.337 59.721 59.305 59.812 59.264 C 59.858 59.029 59.905 58.913 59.952 58.655 C 60.049 58.634 60.143 58.603 60.233 58.561 C 60.279 58.327 60.326 58.21 60.373 57.976 C 60.701 57.882 60.889 57.836 61.216 57.742 C 61.17 57.976 61.146 58.093 61.099 58.35 C 61.216 58.327 61.287 58.303 61.38 58.28 C 61.333 58.515 61.31 58.655 61.263 58.889 C 61.38 58.866 61.45 58.842 61.568 58.819 C 61.45 59.568 61.38 59.943 61.263 60.716 C 61.146 60.738 61.076 60.738 60.936 60.762 C 60.891 60.978 60.86 61.197 60.842 61.418 C 60.724 61.441 60.654 61.441 60.514 61.464 C 60.471 61.681 60.44 61.9 60.42 62.121 C 60.045 62.237 59.858 62.261 59.484 62.354 Z M 59.905 61.629 L 60.537 61.511 C 60.701 60.481 60.795 59.966 60.982 58.982 C 60.865 59.006 60.795 59.029 60.678 59.053 C 60.724 58.819 60.748 58.678 60.795 58.444 C 60.561 58.491 60.444 58.538 60.21 58.585 C 59.999 59.545 59.882 60.036 59.694 61.043 C 59.812 61.02 59.882 60.996 59.999 60.973 C 59.981 61.193 59.949 61.412 59.905 61.629 Z" style=""/>
  <path class="cls-2" d="M 62.082 61.909 C 62.106 61.652 62.129 61.511 62.153 61.254 C 62.012 61.277 61.966 61.277 61.825 61.301 C 61.845 61.081 61.876 60.862 61.919 60.645 C 61.802 60.669 61.731 60.669 61.591 60.692 C 61.708 59.919 61.755 59.545 61.872 58.795 C 61.989 58.772 62.059 58.772 62.176 58.748 C 62.223 58.491 62.223 58.374 62.27 58.14 C 62.387 58.116 62.457 58.116 62.574 58.093 C 62.594 57.888 62.625 57.685 62.668 57.484 C 63.019 57.414 63.183 57.39 63.558 57.344 C 63.534 57.578 63.511 57.718 63.487 57.952 C 63.605 57.929 63.675 57.929 63.792 57.906 C 63.769 58.163 63.745 58.28 63.722 58.538 C 63.822 58.518 63.924 58.51 64.026 58.515 C 63.956 59.264 63.932 59.662 63.862 60.434 C 63.722 60.434 63.675 60.458 63.534 60.458 C 63.511 60.716 63.511 60.856 63.487 61.113 C 63.379 61.132 63.27 61.14 63.16 61.137 C 63.136 61.395 63.113 61.535 63.089 61.816 C 62.668 61.839 62.481 61.863 62.082 61.909 Z M 62.481 61.207 C 62.738 61.184 62.879 61.16 63.136 61.137 C 63.23 60.083 63.277 59.568 63.394 58.561 C 63.277 58.585 63.206 58.585 63.089 58.608 C 63.113 58.35 63.136 58.234 63.16 57.976 C 62.926 58.023 62.808 58.023 62.574 58.069 C 62.434 59.053 62.363 59.568 62.223 60.598 C 62.34 60.575 62.41 60.575 62.551 60.551 C 62.527 60.809 62.504 60.95 62.481 61.207 Z" style=""/>
  <path class="cls-2" d="M 64.424 61.699 C 64.448 61.441 64.448 61.301 64.471 61.02 C 64.729 60.996 64.869 60.996 65.15 60.973 C 65.196 59.896 65.22 59.381 65.29 58.374 C 65.188 58.37 65.086 58.378 64.986 58.397 C 65.009 58.14 65.009 58.023 65.033 57.765 C 65.15 57.765 65.22 57.742 65.337 57.742 C 65.356 57.54 65.364 57.336 65.361 57.133 C 65.595 57.11 65.712 57.11 65.969 57.086 C 65.922 58.561 65.876 59.334 65.829 60.95 C 66.087 60.95 66.227 60.926 66.508 60.926 L 66.508 61.605 C 65.812 61.6 65.117 61.632 64.424 61.699 Z" style=""/>
  <path class="cls-2" d="M 45.458 71.72 C 45.538 71.545 45.609 71.365 45.669 71.182 C 45.579 71.223 45.485 71.255 45.388 71.276 C 45.481 71.065 45.528 70.948 45.622 70.737 L 45.341 70.854 C 45.569 70.328 45.835 69.819 46.137 69.332 C 46.231 69.285 46.301 69.262 46.395 69.215 C 46.512 69.004 46.558 68.91 46.676 68.723 C 46.767 68.685 46.853 68.638 46.933 68.583 C 47.05 68.372 47.097 68.278 47.214 68.091 C 47.473 67.944 47.738 67.812 48.01 67.693 C 47.893 67.904 47.847 67.997 47.729 68.208 L 48.01 68.091 C 47.916 68.302 47.847 68.419 47.753 68.629 L 48.034 68.512 C 47.729 69.168 47.589 69.496 47.331 70.152 C 47.242 70.193 47.147 70.224 47.05 70.245 C 46.97 70.428 46.899 70.616 46.839 70.807 C 46.723 70.854 46.652 70.854 46.558 70.901 C 46.478 71.084 46.408 71.271 46.348 71.463 C 45.973 71.556 45.809 71.603 45.458 71.72 Z M 45.973 71.065 C 46.172 71.005 46.367 70.935 46.558 70.854 C 46.91 69.964 47.097 69.52 47.495 68.676 L 47.214 68.794 C 47.308 68.583 47.378 68.489 47.472 68.278 C 47.261 68.372 47.144 68.442 46.933 68.536 C 46.553 69.203 46.209 69.891 45.903 70.597 L 46.184 70.479 C 46.131 70.68 46.061 70.876 45.973 71.065 Z" style=""/>
  <path class="cls-2" d="M 47.519 71.065 C 47.589 70.831 47.636 70.713 47.706 70.479 C 47.94 70.409 48.057 70.362 48.315 70.292 C 48.619 69.355 48.806 68.887 49.158 67.997 L 48.877 68.115 C 48.97 67.88 49.017 67.787 49.111 67.552 L 49.392 67.436 C 49.468 67.244 49.554 67.056 49.649 66.873 C 49.86 66.78 49.977 66.733 50.211 66.639 C 49.706 67.765 49.276 68.922 48.924 70.105 C 49.181 70.034 49.298 69.987 49.532 69.941 C 49.462 70.175 49.439 70.315 49.368 70.55 C 48.619 70.76 48.244 70.854 47.519 71.065 Z" style=""/>
  <path class="cls-2" d="M 50.329 70.339 C 50.398 70.081 50.422 69.964 50.492 69.707 C 50.381 69.73 50.272 69.761 50.164 69.8 C 50.213 69.594 50.276 69.39 50.352 69.192 C 50.247 69.212 50.145 69.244 50.047 69.285 C 50.258 68.559 50.375 68.208 50.633 67.482 C 50.73 67.441 50.833 67.409 50.937 67.389 C 51.031 67.154 51.055 67.038 51.148 66.803 L 51.452 66.686 C 51.546 66.452 51.569 66.335 51.663 66.101 C 52.014 65.96 52.178 65.914 52.553 65.773 C 52.459 66.007 52.436 66.124 52.342 66.381 C 52.459 66.335 52.529 66.335 52.646 66.288 C 52.576 66.522 52.529 66.663 52.459 66.897 C 52.576 66.85 52.646 66.85 52.764 66.803 C 52.553 67.552 52.436 67.927 52.248 68.7 C 52.108 68.723 52.061 68.747 51.921 68.77 C 51.85 69.028 51.827 69.145 51.757 69.402 C 51.616 69.426 51.569 69.449 51.429 69.473 C 51.371 69.681 51.324 69.892 51.288 70.105 L 50.329 70.339 Z M 50.82 69.636 C 51.077 69.566 51.195 69.543 51.452 69.473 C 51.71 68.442 51.85 67.95 52.154 66.967 C 52.038 67.014 51.967 67.014 51.85 67.061 C 51.921 66.826 51.967 66.71 52.038 66.452 C 51.803 66.522 51.687 66.569 51.429 66.663 C 51.101 67.599 50.937 68.091 50.656 69.075 C 50.76 69.054 50.863 69.022 50.961 68.981 C 50.914 69.262 50.867 69.379 50.82 69.636 Z" style=""/>
  <path class="cls-2" d="M 52.951 69.777 C 52.986 69.556 53.034 69.337 53.091 69.121 C 52.951 69.145 52.88 69.168 52.764 69.192 C 52.811 68.934 52.857 68.794 52.904 68.536 C 52.764 68.559 52.717 68.583 52.576 68.606 C 52.764 67.833 52.857 67.459 53.068 66.71 C 53.172 66.689 53.274 66.657 53.372 66.616 C 53.424 66.402 53.487 66.191 53.559 65.984 C 53.677 65.937 53.747 65.937 53.864 65.89 C 53.912 65.683 53.975 65.479 54.051 65.281 C 54.426 65.164 54.613 65.117 54.988 65.023 C 54.918 65.281 54.894 65.398 54.824 65.656 C 54.935 65.633 55.045 65.601 55.152 65.562 C 55.082 65.82 55.058 65.937 54.988 66.218 C 55.128 66.194 55.175 66.171 55.315 66.147 C 55.128 66.92 55.058 67.318 54.894 68.138 C 54.754 68.161 54.683 68.184 54.567 68.208 C 54.52 68.466 54.496 68.606 54.426 68.887 C 54.285 68.91 54.215 68.934 54.098 68.957 C 54.051 69.215 54.028 69.355 53.981 69.636 C 53.635 69.658 53.291 69.705 52.951 69.777 Z M 53.419 69.051 C 53.677 69.004 53.817 68.981 54.098 68.91 C 54.309 67.833 54.426 67.295 54.66 66.288 C 54.52 66.312 54.473 66.335 54.332 66.359 C 54.403 66.101 54.426 65.984 54.496 65.726 C 54.238 65.796 54.122 65.82 53.864 65.89 C 53.583 66.897 53.466 67.412 53.208 68.442 C 53.349 68.419 53.396 68.396 53.536 68.372 C 53.52 68.602 53.481 68.829 53.419 69.051 Z" style=""/>
  <path class="cls-2" d="M 55.339 69.355 L 55.456 68.653 L 56.159 68.536 C 56.323 67.436 56.416 66.873 56.627 65.82 C 56.486 65.843 56.416 65.867 56.299 65.89 C 56.335 65.669 56.382 65.45 56.439 65.235 C 56.58 65.211 56.627 65.188 56.767 65.164 C 56.814 64.907 56.861 64.766 56.908 64.509 C 57.165 64.462 57.283 64.415 57.564 64.368 C 57.259 65.937 57.118 66.756 56.861 68.442 C 57.142 68.396 57.283 68.372 57.564 68.349 C 57.517 68.629 57.517 68.77 57.47 69.051 C 56.604 69.168 56.182 69.238 55.339 69.355 Z" style=""/>
  <path class="cls-2" d="M 58.172 68.981 C 58.196 68.7 58.219 68.559 58.266 68.278 C 58.547 68.255 58.688 68.231 58.968 68.184 C 59.086 67.038 59.156 66.475 59.32 65.375 C 59.179 65.398 59.109 65.398 58.968 65.422 C 59.015 65.141 59.015 65 59.062 64.743 C 59.202 64.719 59.273 64.719 59.39 64.696 C 59.437 64.415 59.437 64.298 59.484 64.017 C 59.741 63.97 59.882 63.946 60.163 63.9 C 59.928 65.515 59.835 66.359 59.671 68.091 C 59.952 68.068 60.116 68.044 60.397 68.021 C 60.373 68.302 60.35 68.466 60.326 68.747 L 58.172 68.981 Z" style=""/>
  <path class="cls-2" d="M 61.099 68.7 C 61.123 68.396 61.123 68.255 61.146 67.974 C 61.427 67.95 61.591 67.95 61.872 67.927 C 61.942 66.756 61.989 66.171 62.082 65.047 C 61.967 65.067 61.849 65.074 61.731 65.07 C 61.755 64.79 61.778 64.649 61.802 64.368 C 61.918 64.349 62.036 64.341 62.153 64.344 C 62.176 64.064 62.2 63.923 62.223 63.642 C 62.504 63.619 62.645 63.595 62.926 63.572 C 62.785 65.235 62.738 66.101 62.621 67.857 C 62.926 67.833 63.066 67.833 63.371 67.81 C 63.347 68.115 63.347 68.255 63.347 68.559 C 62.434 68.606 61.989 68.629 61.099 68.7 Z" style=""/>
  <path class="cls-2" d="M 64.471 68.512 C 64.471 68.208 64.494 68.068 64.494 67.763 C 64.369 67.759 64.243 67.767 64.12 67.787 C 64.12 67.482 64.143 67.342 64.143 67.061 C 64.018 67.057 63.892 67.065 63.769 67.084 C 63.815 66.194 63.839 65.773 63.885 64.93 C 64.003 64.934 64.121 64.926 64.237 64.907 C 64.26 64.625 64.26 64.485 64.26 64.204 C 64.378 64.208 64.495 64.2 64.611 64.181 C 64.611 63.9 64.635 63.759 64.635 63.478 C 65.056 63.455 65.267 63.455 65.688 63.432 C 65.688 63.712 65.688 63.853 65.665 64.134 L 66.016 64.134 L 66.016 64.836 L 66.391 64.836 C 66.391 65.702 66.367 66.124 66.367 67.014 L 65.993 67.014 L 65.993 67.74 L 65.618 67.74 C 65.618 68.044 65.618 68.184 65.595 68.489 C 65.174 68.489 64.939 68.489 64.471 68.512 Z M 64.892 67.763 C 65.196 67.763 65.337 67.74 65.642 67.74 C 65.665 66.546 65.665 65.96 65.712 64.836 L 65.337 64.836 C 65.337 64.556 65.337 64.415 65.361 64.134 C 65.08 64.134 64.939 64.157 64.635 64.157 C 64.588 65.281 64.564 65.867 64.518 67.038 C 64.643 67.041 64.768 67.033 64.892 67.014 L 64.892 67.763 Z" style=""/>
  <path class="cls-2" d="M 44.006 77.223 C 44.027 77.026 44.057 76.831 44.1 76.637 C 43.983 76.661 43.913 76.661 43.796 76.684 L 43.913 76.099 C 43.796 76.122 43.725 76.122 43.609 76.146 C 43.749 75.443 43.843 75.116 44.03 74.437 C 44.147 74.413 44.217 74.39 44.334 74.366 C 44.404 74.132 44.428 74.015 44.498 73.804 C 44.615 73.781 44.686 73.758 44.802 73.734 C 44.85 73.542 44.914 73.355 44.99 73.172 L 45.879 72.938 C 45.809 73.172 45.786 73.289 45.716 73.523 C 45.833 73.5 45.903 73.476 46.02 73.453 C 45.962 73.645 45.916 73.841 45.879 74.038 C 45.997 74.015 46.067 73.992 46.184 73.968 C 46.02 74.694 45.926 75.045 45.809 75.795 C 45.692 75.818 45.622 75.818 45.481 75.841 C 45.439 76.042 45.408 76.246 45.388 76.45 C 45.271 76.474 45.2 76.474 45.06 76.497 C 45.013 76.731 45.013 76.872 44.967 77.106 C 44.545 77.153 44.357 77.176 44.006 77.223 Z M 44.404 76.567 C 44.617 76.548 44.828 76.516 45.037 76.474 C 45.2 75.49 45.294 75.022 45.528 74.062 C 45.411 74.085 45.341 74.109 45.224 74.132 C 45.294 73.898 45.318 73.781 45.388 73.547 C 45.154 73.593 45.037 73.64 44.779 73.687 C 44.522 74.6 44.404 75.069 44.217 76.005 C 44.334 75.982 44.404 75.982 44.522 75.958 C 44.475 76.216 44.451 76.333 44.404 76.567 Z" style=""/>
  <path class="cls-2" d="M 46.231 76.966 C 46.251 76.753 46.282 76.542 46.325 76.333 C 46.582 76.309 46.723 76.286 46.98 76.263 C 47.121 75.232 47.214 74.717 47.425 73.734 C 47.284 73.758 47.237 73.781 47.097 73.804 C 47.144 73.547 47.191 73.43 47.237 73.195 C 47.355 73.172 47.425 73.148 47.565 73.125 C 47.612 72.868 47.659 72.75 47.706 72.516 C 47.963 72.469 48.081 72.423 48.338 72.376 C 48.03 73.641 47.796 74.924 47.636 76.216 C 47.893 76.193 48.034 76.169 48.315 76.146 C 48.291 76.403 48.268 76.544 48.244 76.825 C 47.571 76.834 46.899 76.881 46.231 76.966 Z" style=""/>
  <path class="cls-2" d="M 49.228 76.661 C 49.252 76.38 49.275 76.24 49.298 75.982 C 49.182 76.001 49.064 76.009 48.947 76.005 C 48.97 75.748 48.994 75.607 49.04 75.326 C 48.9 75.35 48.83 75.35 48.713 75.373 C 48.83 74.577 48.877 74.179 49.04 73.406 C 49.181 73.383 49.252 73.383 49.368 73.36 C 49.415 73.101 49.439 72.961 49.485 72.704 C 49.626 72.681 49.696 72.681 49.813 72.657 C 49.849 72.436 49.896 72.217 49.954 72.002 C 50.352 71.931 50.539 71.884 50.937 71.814 C 50.89 72.071 50.867 72.212 50.82 72.469 C 50.961 72.446 51.031 72.446 51.148 72.423 C 51.101 72.681 51.077 72.821 51.031 73.101 C 51.171 73.079 51.242 73.079 51.382 73.055 C 51.265 73.874 51.195 74.296 51.101 75.116 C 50.961 75.139 50.89 75.139 50.75 75.163 C 50.726 75.443 50.703 75.583 50.68 75.865 C 50.564 75.884 50.446 75.892 50.329 75.888 C 50.305 76.169 50.282 76.309 50.258 76.591 C 49.86 76.614 49.649 76.637 49.228 76.661 Z M 49.649 75.958 C 49.931 75.935 50.071 75.912 50.352 75.888 C 50.469 74.788 50.539 74.226 50.726 73.148 C 50.586 73.172 50.516 73.172 50.398 73.195 C 50.445 72.938 50.469 72.797 50.516 72.54 C 50.258 72.587 50.118 72.61 49.837 72.657 C 49.626 73.711 49.556 74.226 49.415 75.326 C 49.556 75.303 49.626 75.303 49.766 75.279 C 49.703 75.5 49.663 75.728 49.649 75.958 Z" style=""/>
  <path class="cls-2" d="M 52.038 76.45 C 52.061 76.169 52.061 76.029 52.108 75.724 C 51.967 75.724 51.897 75.748 51.757 75.748 C 51.78 75.467 51.803 75.326 51.827 75.045 C 51.711 75.064 51.593 75.072 51.476 75.069 C 51.569 74.226 51.616 73.804 51.734 72.985 C 51.874 72.961 51.944 72.961 52.085 72.938 C 52.131 72.657 52.154 72.516 52.178 72.259 C 52.319 72.235 52.389 72.235 52.529 72.212 C 52.576 71.931 52.6 71.79 52.646 71.533 C 53.068 71.463 53.255 71.439 53.677 71.369 C 53.63 71.65 53.606 71.79 53.583 72.071 C 53.724 72.048 53.794 72.048 53.934 72.025 C 53.887 72.306 53.887 72.446 53.841 72.727 C 53.981 72.704 54.051 72.704 54.192 72.681 C 54.098 73.547 54.051 73.968 53.981 74.835 C 53.841 74.835 53.77 74.858 53.606 74.858 C 53.583 75.139 53.559 75.303 53.536 75.583 C 53.396 75.583 53.325 75.607 53.162 75.607 C 53.138 75.888 53.138 76.052 53.115 76.333 C 52.759 76.397 52.399 76.436 52.038 76.45 Z M 52.459 75.701 C 52.74 75.677 52.88 75.677 53.185 75.654 C 53.279 74.484 53.349 73.921 53.49 72.797 C 53.349 72.821 53.279 72.821 53.138 72.844 C 53.185 72.563 53.185 72.423 53.232 72.142 C 52.951 72.189 52.811 72.189 52.529 72.235 C 52.366 73.336 52.295 73.898 52.178 75.045 C 52.294 75.026 52.412 75.018 52.529 75.022 C 52.506 75.279 52.482 75.42 52.459 75.701 Z" style=""/>
  <path class="cls-2" d="M 54.964 76.263 C 54.988 75.958 54.988 75.818 55.011 75.514 C 54.871 75.514 54.801 75.537 54.636 75.537 C 54.66 75.232 54.66 75.092 54.683 74.788 C 54.543 74.788 54.473 74.811 54.309 74.811 C 54.379 73.921 54.426 73.5 54.52 72.634 C 54.66 72.61 54.73 72.61 54.871 72.587 C 54.894 72.306 54.918 72.165 54.964 71.861 C 55.105 71.837 55.175 71.837 55.315 71.814 C 55.339 71.533 55.362 71.392 55.409 71.088 L 56.486 70.971 C 56.463 71.252 56.439 71.416 56.416 71.697 C 56.557 71.674 56.627 71.674 56.791 71.65 C 56.767 71.931 56.744 72.095 56.72 72.376 C 56.844 72.356 56.97 72.349 57.095 72.353 C 57.025 73.242 56.978 73.687 56.931 74.6 C 56.791 74.6 56.697 74.624 56.557 74.624 C 56.533 74.928 56.533 75.069 56.51 75.373 C 56.369 75.373 56.276 75.396 56.135 75.396 C 56.112 75.701 56.112 75.841 56.088 76.146 C 55.717 76.208 55.341 76.247 54.964 76.263 Z M 55.386 75.49 C 55.69 75.467 55.831 75.467 56.135 75.443 C 56.206 74.226 56.252 73.64 56.369 72.469 C 56.246 72.49 56.12 72.498 55.995 72.493 C 56.018 72.212 56.041 72.048 56.065 71.767 C 55.784 71.79 55.62 71.814 55.339 71.837 C 55.199 72.985 55.152 73.57 55.058 74.764 C 55.199 74.764 55.269 74.741 55.433 74.741 C 55.433 75.045 55.409 75.186 55.386 75.49 Z" style=""/>
  <path class="cls-2" d="M 57.61 76.122 C 57.634 75.818 57.634 75.654 57.657 75.35 C 57.962 75.326 58.125 75.326 58.43 75.303 C 58.476 74.062 58.523 73.453 58.617 72.259 C 58.476 72.259 58.383 72.282 58.242 72.282 C 58.266 71.978 58.266 71.837 58.289 71.533 C 58.43 71.533 58.523 71.51 58.664 71.51 C 58.688 71.205 58.688 71.065 58.734 70.76 C 59.039 70.737 59.179 70.713 59.484 70.69 C 59.343 72.469 59.296 73.383 59.202 75.256 C 59.507 75.232 59.671 75.232 59.975 75.232 C 59.975 75.537 59.952 75.701 59.952 76.005 C 58.992 76.075 58.547 76.099 57.61 76.122 Z" style=""/>
  <path class="cls-2" d="M 61.123 76.005 C 61.123 75.677 61.146 75.537 61.146 75.209 L 60.748 75.209 C 60.748 74.905 60.771 74.741 60.771 74.437 C 60.638 74.432 60.505 74.44 60.373 74.46 C 60.42 73.523 60.444 73.055 60.491 72.142 C 60.616 72.145 60.741 72.138 60.865 72.118 C 60.889 71.814 60.889 71.65 60.912 71.369 C 61.052 71.369 61.146 71.345 61.287 71.345 C 61.31 71.041 61.31 70.901 61.333 70.597 C 61.802 70.573 62.012 70.55 62.481 70.526 C 62.457 70.831 62.457 70.971 62.457 71.276 C 62.583 71.28 62.708 71.272 62.832 71.252 C 62.832 71.556 62.808 71.72 62.808 72.025 C 62.942 72.029 63.075 72.021 63.206 72.002 C 63.183 72.938 63.16 73.406 63.136 74.343 L 62.738 74.343 C 62.738 74.647 62.738 74.811 62.715 75.139 L 62.317 75.139 C 62.317 75.467 62.317 75.607 62.294 75.935 C 61.905 75.982 61.514 76.005 61.123 76.005 Z M 61.544 75.209 C 61.872 75.209 62.012 75.186 62.34 75.186 C 62.363 73.921 62.387 73.289 62.434 72.071 C 62.301 72.068 62.168 72.076 62.036 72.095 C 62.036 71.79 62.059 71.627 62.059 71.323 C 61.755 71.345 61.591 71.345 61.287 71.369 C 61.216 72.587 61.193 73.195 61.146 74.437 C 61.279 74.44 61.412 74.432 61.544 74.413 L 61.544 75.209 Z" style=""/>
  <path class="cls-2" d="M 64.33 75.935 L 64.33 75.139 L 63.932 75.139 C 63.932 74.811 63.932 74.671 63.956 74.343 L 63.558 74.343 C 63.581 73.406 63.581 72.938 63.605 72.002 L 64.003 72.002 C 64.003 71.697 64.003 71.533 64.026 71.229 L 64.424 71.229 C 64.424 70.924 64.424 70.76 64.448 70.456 C 64.916 70.456 65.15 70.432 65.618 70.432 L 65.618 71.205 L 66.016 71.205 L 66.016 71.978 L 66.414 71.978 L 66.414 74.343 L 66.016 74.343 L 66.016 75.139 L 65.618 75.139 L 65.618 75.935 L 64.33 75.935 Z M 64.729 75.139 L 65.548 75.139 C 65.548 73.851 65.571 73.242 65.571 72.002 L 65.174 72.002 L 65.174 71.229 C 64.845 71.229 64.705 71.229 64.377 71.252 C 64.354 72.469 64.33 73.101 64.307 74.366 L 64.705 74.366 C 64.729 74.671 64.729 74.835 64.729 75.139 Z" style=""/>
  <path class="cls-2" d="M 43.796 83.123 C 43.772 82.889 43.772 82.749 43.749 82.515 C 43.646 82.518 43.545 82.51 43.444 82.491 C 43.425 82.289 43.417 82.086 43.421 81.883 L 43.117 81.883 C 43.093 81.157 43.093 80.782 43.117 80.056 L 43.421 80.056 C 43.421 79.822 43.444 79.681 43.444 79.447 C 43.547 79.451 43.649 79.443 43.749 79.424 C 43.772 79.189 43.772 79.049 43.796 78.815 C 44.17 78.791 44.357 78.768 44.755 78.744 C 44.732 79.002 44.732 79.119 44.709 79.377 C 44.819 79.381 44.929 79.373 45.037 79.354 C 45.017 79.564 45.009 79.775 45.013 79.986 L 45.341 79.986 C 45.318 80.759 45.318 81.157 45.341 81.929 L 45.013 81.929 C 45.013 82.187 45.037 82.304 45.037 82.562 C 44.927 82.565 44.817 82.557 44.709 82.538 C 44.732 82.795 44.732 82.913 44.755 83.17 C 44.357 83.147 44.17 83.147 43.796 83.123 Z M 44.053 82.515 C 44.311 82.515 44.428 82.538 44.686 82.538 C 44.639 81.531 44.639 80.992 44.662 79.986 L 44.334 79.986 C 44.334 79.728 44.357 79.611 44.357 79.354 C 44.1 79.354 43.983 79.377 43.725 79.377 C 43.663 80.203 43.648 81.032 43.678 81.859 L 44.006 81.859 C 44.045 82.075 44.06 82.295 44.053 82.515 Z" style=""/>
  <path class="cls-2" d="M 46.044 83.241 C 46.024 83.022 46.017 82.803 46.02 82.585 C 46.278 82.585 46.418 82.608 46.676 82.608 C 46.629 81.531 46.629 80.992 46.652 79.915 L 46.325 79.915 C 46.325 79.658 46.348 79.517 46.348 79.26 C 46.457 79.265 46.567 79.257 46.676 79.236 C 46.699 78.979 46.699 78.838 46.723 78.581 C 46.98 78.557 47.121 78.557 47.402 78.534 C 47.292 79.89 47.277 81.25 47.355 82.608 C 47.612 82.608 47.753 82.631 48.034 82.631 C 48.057 82.913 48.057 83.053 48.057 83.311 C 47.214 83.311 46.816 83.287 46.044 83.241 Z" style=""/>
  <path class="cls-2" d="M 49.087 83.404 C 49.064 83.123 49.064 82.983 49.064 82.702 L 48.713 82.702 C 48.713 82.421 48.689 82.28 48.689 81.999 L 48.338 81.999 C 48.315 81.157 48.315 80.735 48.338 79.892 L 48.689 79.892 C 48.689 79.611 48.713 79.47 48.713 79.189 C 48.831 79.193 48.948 79.186 49.064 79.166 C 49.087 78.885 49.087 78.744 49.087 78.464 C 49.509 78.44 49.719 78.44 50.141 78.417 C 50.118 78.698 50.118 78.838 50.118 79.119 L 50.469 79.119 C 50.445 79.401 50.445 79.541 50.445 79.845 L 50.797 79.845 C 50.773 80.712 50.773 81.157 50.797 82.046 L 50.445 82.046 C 50.445 82.327 50.445 82.491 50.469 82.772 L 50.118 82.772 C 50.118 83.053 50.141 83.194 50.141 83.474 C 49.696 83.428 49.485 83.428 49.087 83.404 Z M 49.392 82.702 C 49.673 82.702 49.813 82.702 50.094 82.725 C 50.047 81.578 50.047 80.992 50.071 79.845 L 49.719 79.845 C 49.719 79.564 49.743 79.424 49.743 79.143 C 49.462 79.143 49.321 79.166 49.04 79.166 C 48.994 80.29 48.994 80.852 49.017 81.999 L 49.368 81.999 C 49.392 82.28 49.392 82.421 49.392 82.702 Z" style=""/>
  <path class="cls-2" d="M 51.546 83.498 C 51.522 83.217 51.522 83.053 51.522 82.772 C 51.803 82.772 51.967 82.772 52.248 82.795 C 52.225 81.601 52.225 80.992 52.248 79.799 L 51.874 79.799 C 51.874 79.494 51.874 79.354 51.897 79.073 L 52.272 79.073 C 52.272 78.768 52.295 78.628 52.295 78.347 C 52.576 78.347 52.74 78.323 53.021 78.323 C 52.951 80.103 52.927 81.039 52.998 82.842 C 53.302 82.842 53.443 82.842 53.747 82.866 C 53.747 83.17 53.77 83.311 53.77 83.615 C 52.857 83.545 52.412 83.521 51.546 83.498 Z" style=""/>
  <path class="cls-2" d="M 54.871 83.615 C 54.871 83.311 54.848 83.147 54.848 82.842 L 54.473 82.842 C 54.473 82.538 54.473 82.374 54.449 82.07 L 54.075 82.07 C 54.051 81.157 54.051 80.688 54.075 79.775 L 54.449 79.775 C 54.449 79.47 54.449 79.307 54.473 79.002 L 54.848 79.002 C 54.848 78.698 54.871 78.534 54.871 78.23 C 55.315 78.206 55.55 78.206 55.995 78.206 C 55.995 78.511 55.972 78.675 55.972 78.979 L 56.346 78.979 C 56.346 79.283 56.346 79.447 56.323 79.752 L 56.697 79.752 C 56.697 80.688 56.674 81.18 56.697 82.117 L 56.323 82.117 L 56.323 82.889 L 55.948 82.889 C 55.948 83.194 55.948 83.357 55.972 83.662 C 55.55 83.639 55.315 83.615 54.871 83.615 Z M 55.222 82.842 C 55.527 82.842 55.667 82.842 55.972 82.866 C 55.948 81.625 55.948 80.992 55.972 79.728 L 55.597 79.728 C 55.597 79.424 55.597 79.26 55.62 78.956 C 55.315 78.956 55.175 78.956 54.871 78.979 C 54.848 80.196 54.848 80.829 54.848 82.07 L 55.222 82.07 L 55.222 82.842 Z" style=""/>
  <path class="cls-2" d="M 57.915 83.685 C 57.915 83.381 57.915 83.217 57.891 82.889 L 57.493 82.889 L 57.493 82.093 L 57.118 82.093 L 57.118 79.728 L 57.493 79.728 L 57.493 78.932 L 57.891 78.932 C 57.891 78.604 57.891 78.464 57.915 78.136 C 58.383 78.136 58.617 78.112 59.086 78.112 C 59.086 78.44 59.086 78.581 59.062 78.909 L 59.46 78.909 L 59.46 79.705 L 59.858 79.705 L 59.858 82.14 L 59.46 82.14 L 59.46 82.936 L 59.062 82.936 L 59.062 83.732 C 58.617 83.708 58.383 83.685 57.915 83.685 Z M 58.289 82.913 L 59.062 82.913 C 59.039 81.625 59.039 80.992 59.062 79.705 L 58.664 79.705 L 58.664 78.909 C 58.36 78.909 58.196 78.909 57.891 78.932 C 57.868 80.196 57.868 80.829 57.868 82.117 L 58.266 82.117 C 58.289 82.421 58.289 82.585 58.289 82.913 Z" style=""/>
  <path class="cls-2" d="M 60.678 83.732 L 60.678 82.936 L 61.474 82.936 L 61.474 79.681 L 61.076 79.681 L 61.076 78.862 L 61.474 78.862 L 61.474 78.065 L 62.27 78.065 C 62.247 80.009 62.247 80.992 62.27 82.96 L 63.089 82.96 L 63.089 83.779 C 62.106 83.755 61.638 83.755 60.678 83.732 Z" style=""/>
  <path class="cls-2" d="M 64.307 83.779 L 64.307 82.96 L 63.909 82.96 L 63.909 82.14 L 63.511 82.14 L 63.511 79.681 L 63.909 79.681 L 63.909 78.862 L 64.307 78.862 L 64.307 78.042 L 65.525 78.042 L 65.525 78.862 L 65.946 78.862 L 65.946 79.681 L 66.367 79.681 L 66.367 82.163 L 65.946 82.163 L 65.946 82.983 L 65.525 82.983 L 65.525 83.802 C 65.033 83.779 64.776 83.779 64.307 83.779 Z M 64.705 82.96 L 65.525 82.96 L 65.525 79.658 L 65.103 79.658 L 65.103 78.838 L 64.284 78.838 L 64.284 82.117 L 64.705 82.117 L 64.705 82.96 Z" style=""/>
  <path class="cls-2" d="M 44.873 88.766 C 44.802 88.532 44.779 88.415 44.709 88.204 C 44.592 88.181 44.522 88.158 44.404 88.134 C 44.334 87.9 44.311 87.783 44.241 87.572 C 44.123 87.549 44.053 87.526 43.936 87.502 C 43.749 86.823 43.678 86.495 43.538 85.793 C 43.655 85.816 43.725 85.816 43.843 85.839 C 43.8 85.646 43.769 85.451 43.749 85.254 C 43.866 85.277 43.936 85.277 44.053 85.301 C 44.006 85.067 44.006 84.95 43.96 84.716 L 44.896 84.832 C 44.914 85.038 44.945 85.241 44.99 85.442 C 45.107 85.465 45.177 85.465 45.318 85.488 C 45.365 85.746 45.365 85.863 45.411 86.097 C 45.528 86.121 45.599 86.121 45.739 86.144 C 45.856 86.893 45.926 87.268 46.091 87.993 C 45.973 87.97 45.903 87.946 45.786 87.923 C 45.833 88.158 45.879 88.274 45.926 88.509 C 45.809 88.485 45.739 88.462 45.622 88.438 C 45.692 88.672 45.716 88.79 45.786 89.024 C 45.411 88.907 45.224 88.86 44.873 88.766 Z M 45.013 88.274 C 45.247 88.321 45.388 88.368 45.622 88.415 C 45.403 87.63 45.231 86.832 45.107 86.027 C 44.99 86.003 44.92 86.003 44.802 85.98 C 44.758 85.779 44.727 85.576 44.709 85.371 C 44.451 85.348 44.334 85.324 44.076 85.301 C 44.241 86.261 44.334 86.729 44.568 87.642 C 44.686 87.666 44.755 87.689 44.873 87.713 C 44.9 87.904 44.947 88.093 45.013 88.274 Z" style=""/>
  <path class="cls-2" d="M 47.003 89.282 C 46.943 89.082 46.896 88.879 46.863 88.672 L 47.495 88.79 C 47.29 87.957 47.133 87.112 47.027 86.261 C 46.886 86.237 46.839 86.237 46.699 86.214 C 46.652 85.956 46.652 85.839 46.605 85.582 C 46.746 85.605 46.793 85.605 46.933 85.629 C 46.91 85.371 46.886 85.231 46.863 84.973 C 47.121 84.997 47.261 85.02 47.519 85.044 C 47.636 86.351 47.839 87.649 48.128 88.93 L 48.783 89.047 C 48.819 89.261 48.865 89.471 48.924 89.68 C 48.128 89.539 47.753 89.469 47.003 89.282 Z" style=""/>
  <path class="cls-2" d="M 49.884 89.89 C 49.837 89.633 49.813 89.492 49.766 89.235 C 49.626 89.211 49.556 89.211 49.439 89.188 C 49.392 88.93 49.368 88.79 49.321 88.532 C 49.181 88.509 49.111 88.509 48.994 88.485 C 48.853 87.713 48.783 87.314 48.689 86.495 C 48.83 86.518 48.9 86.518 49.017 86.542 C 48.994 86.284 48.97 86.144 48.947 85.863 C 49.063 85.882 49.181 85.89 49.298 85.886 C 49.275 85.605 49.252 85.465 49.228 85.207 C 49.649 85.231 49.86 85.254 50.258 85.277 C 50.282 85.558 50.282 85.699 50.329 85.98 C 50.469 85.98 50.539 86.003 50.68 86.003 C 50.703 86.284 50.726 86.425 50.75 86.706 C 50.89 86.729 50.961 86.729 51.101 86.753 C 51.195 87.595 51.242 88.017 51.359 88.837 C 51.218 88.813 51.148 88.813 51.008 88.79 C 51.055 89.071 51.077 89.188 51.124 89.469 C 50.984 89.445 50.914 89.445 50.797 89.422 C 50.843 89.68 50.867 89.82 50.914 90.101 C 50.575 90.011 50.231 89.94 49.884 89.89 Z M 50.094 89.282 C 50.352 89.329 50.492 89.351 50.773 89.398 C 50.586 88.321 50.516 87.783 50.398 86.682 C 50.283 86.663 50.165 86.655 50.047 86.659 C 50.024 86.378 50.001 86.237 49.977 85.98 C 49.696 85.956 49.556 85.933 49.298 85.91 C 49.415 87.01 49.485 87.549 49.673 88.603 C 49.813 88.626 49.884 88.626 50.001 88.649 C 50.024 88.883 50.047 89.024 50.094 89.282 Z" style=""/>
  <path class="cls-2" d="M 52.6 90.335 C 52.553 90.054 52.529 89.914 52.506 89.656 C 52.366 89.633 52.295 89.633 52.154 89.609 C 52.108 89.329 52.085 89.188 52.061 88.907 C 51.921 88.883 51.85 88.883 51.71 88.86 C 51.593 88.04 51.546 87.619 51.452 86.776 C 51.569 86.795 51.686 86.803 51.803 86.8 C 51.78 86.518 51.757 86.378 51.734 86.097 C 51.874 86.097 51.944 86.121 52.085 86.121 C 52.061 85.839 52.061 85.699 52.038 85.395 C 52.459 85.418 52.693 85.442 53.115 85.465 C 53.138 85.746 53.138 85.91 53.162 86.19 C 53.302 86.19 53.372 86.214 53.536 86.214 C 53.559 86.495 53.559 86.659 53.583 86.94 C 53.724 86.94 53.794 86.963 53.957 86.963 C 54.028 87.853 54.075 88.274 54.169 89.141 C 54.028 89.117 53.957 89.117 53.817 89.094 C 53.841 89.375 53.864 89.516 53.911 89.796 C 53.77 89.773 53.7 89.773 53.559 89.749 C 53.606 90.031 53.606 90.171 53.653 90.452 C 53.3 90.439 52.948 90.4 52.6 90.335 Z M 52.833 89.703 C 53.115 89.749 53.255 89.749 53.536 89.796 C 53.396 88.672 53.325 88.111 53.232 86.94 C 53.091 86.94 53.021 86.916 52.88 86.916 C 52.857 86.635 52.833 86.495 52.811 86.19 C 52.529 86.167 52.366 86.167 52.085 86.144 C 52.178 87.291 52.248 87.853 52.389 88.977 C 52.529 89 52.6 89 52.74 89.024 C 52.764 89.282 52.787 89.422 52.833 89.703 Z" style=""/>
  <path class="cls-2" d="M 55.035 90.686 C 55.011 90.405 54.988 90.265 54.941 89.984 C 55.222 90.007 55.386 90.031 55.667 90.054 C 55.55 88.883 55.48 88.298 55.409 87.104 C 55.269 87.104 55.175 87.08 55.035 87.08 C 55.011 86.776 55.011 86.635 54.988 86.331 C 55.128 86.331 55.199 86.355 55.362 86.355 C 55.339 86.05 55.339 85.91 55.315 85.605 C 55.62 85.629 55.76 85.629 56.065 85.652 C 56.159 87.479 56.229 88.368 56.393 90.124 C 56.674 90.148 56.838 90.171 57.118 90.195 C 57.142 90.499 57.165 90.64 57.189 90.92 L 55.035 90.686 Z" style=""/>
  <path class="cls-2" d="M 58.313 91.014 C 58.289 90.71 58.266 90.569 58.242 90.265 C 58.102 90.265 58.009 90.241 57.868 90.241 C 57.844 89.937 57.821 89.796 57.821 89.492 C 57.681 89.492 57.587 89.469 57.446 89.469 C 57.376 88.579 57.353 88.111 57.283 87.221 C 57.408 87.217 57.533 87.225 57.657 87.244 C 57.634 86.94 57.634 86.776 57.61 86.472 C 57.736 86.468 57.861 86.475 57.985 86.495 C 57.962 86.19 57.962 86.027 57.962 85.723 C 58.43 85.746 58.664 85.746 59.133 85.769 C 59.133 86.074 59.156 86.237 59.156 86.542 C 59.289 86.538 59.422 86.546 59.554 86.565 C 59.554 86.869 59.577 87.034 59.577 87.338 C 59.711 87.334 59.843 87.342 59.975 87.361 C 60.022 88.298 60.045 88.766 60.092 89.68 C 59.952 89.68 59.858 89.656 59.718 89.656 C 59.741 89.961 59.741 90.101 59.765 90.405 C 59.624 90.405 59.531 90.382 59.39 90.382 C 59.413 90.686 59.413 90.827 59.437 91.131 L 58.313 91.014 Z M 58.641 90.312 C 58.945 90.335 59.086 90.335 59.39 90.359 C 59.296 89.164 59.273 88.556 59.226 87.314 C 59.101 87.319 58.975 87.311 58.851 87.291 C 58.828 86.987 58.828 86.823 58.828 86.518 C 58.523 86.518 58.36 86.495 58.055 86.495 C 58.102 87.736 58.149 88.345 58.242 89.539 C 58.383 89.539 58.476 89.562 58.617 89.562 C 58.602 89.812 58.609 90.063 58.641 90.312 Z" style=""/>
  <path class="cls-2" d="M 61.333 91.225 C 61.31 90.92 61.31 90.78 61.287 90.475 C 61.161 90.48 61.036 90.472 60.912 90.452 C 60.889 90.148 60.889 89.984 60.865 89.68 C 60.74 89.684 60.614 89.676 60.491 89.656 C 60.444 88.743 60.42 88.274 60.373 87.338 C 60.507 87.334 60.64 87.342 60.771 87.361 C 60.771 87.057 60.748 86.893 60.748 86.589 L 61.146 86.589 C 61.146 86.261 61.123 86.121 61.123 85.793 C 61.591 85.793 61.825 85.816 62.317 85.816 C 62.317 86.144 62.317 86.284 62.34 86.612 L 62.738 86.612 C 62.738 86.94 62.738 87.08 62.761 87.408 L 63.16 87.408 C 63.183 88.345 63.183 88.813 63.23 89.749 C 63.097 89.754 62.963 89.746 62.832 89.726 C 62.832 90.031 62.855 90.195 62.855 90.499 C 62.722 90.502 62.589 90.495 62.457 90.475 C 62.457 90.78 62.481 90.944 62.481 91.248 C 62.098 91.276 61.714 91.268 61.333 91.225 Z M 61.661 90.499 C 61.966 90.522 62.129 90.522 62.434 90.522 C 62.387 89.305 62.363 88.672 62.34 87.408 L 61.942 87.408 C 61.942 87.104 61.919 86.94 61.919 86.612 C 61.591 86.612 61.45 86.612 61.123 86.589 C 61.17 87.853 61.193 88.462 61.24 89.703 C 61.365 89.698 61.491 89.706 61.615 89.726 C 61.653 89.982 61.669 90.24 61.661 90.499 Z" style=""/>
  <path class="cls-2" d="M 64.026 91.342 C 64.026 91.038 64.003 90.874 64.003 90.569 C 64.307 90.569 64.471 90.569 64.799 90.593 C 64.776 89.351 64.776 88.719 64.752 87.455 L 64.354 87.455 L 64.354 86.659 L 64.752 86.659 L 64.752 85.863 L 65.571 85.863 C 65.571 87.783 65.595 88.743 65.618 90.593 L 66.414 90.593 L 66.414 91.365 C 65.431 91.389 64.963 91.389 64.026 91.342 Z" style=""/>
  <path class="cls-2" d="M 47.121 93.871 C 47.003 93.66 46.957 93.567 46.839 93.356 C 46.749 93.318 46.663 93.271 46.582 93.215 C 46.465 93.028 46.418 92.91 46.301 92.723 C 46.213 92.689 46.127 92.649 46.044 92.606 C 45.716 91.998 45.552 91.693 45.271 91.061 L 45.552 91.178 C 45.458 90.967 45.411 90.85 45.318 90.64 C 45.407 90.681 45.502 90.712 45.599 90.733 C 45.518 90.558 45.448 90.378 45.388 90.195 C 45.739 90.312 45.903 90.359 46.254 90.475 C 46.31 90.668 46.38 90.856 46.465 91.038 C 46.582 91.085 46.652 91.085 46.746 91.131 C 46.839 91.365 46.863 91.459 46.957 91.693 C 47.047 91.735 47.141 91.766 47.237 91.787 C 47.495 92.466 47.636 92.794 47.916 93.449 L 47.636 93.332 C 47.712 93.516 47.798 93.696 47.893 93.871 L 47.612 93.754 C 47.706 93.964 47.776 94.058 47.87 94.269 C 47.589 94.128 47.425 94.034 47.121 93.871 Z M 47.097 93.52 C 47.308 93.613 47.425 93.683 47.636 93.777 C 47.278 93.076 46.958 92.357 46.676 91.623 C 46.586 91.581 46.492 91.55 46.395 91.529 C 46.311 91.347 46.24 91.16 46.184 90.967 C 45.95 90.897 45.833 90.85 45.622 90.78 C 45.902 91.504 46.231 92.208 46.605 92.887 C 46.693 92.922 46.779 92.961 46.863 93.004 C 46.926 93.182 47.004 93.355 47.097 93.52 Z" style=""/>
  <path class="cls-2" d="M 48.994 94.784 C 48.917 94.6 48.832 94.42 48.736 94.246 C 48.97 94.339 49.064 94.386 49.298 94.48 C 48.971 93.73 48.682 92.963 48.432 92.185 C 48.315 92.138 48.244 92.138 48.128 92.091 C 48.054 91.9 47.992 91.704 47.94 91.506 C 48.045 91.526 48.147 91.557 48.244 91.599 C 48.174 91.365 48.128 91.248 48.057 91.014 C 48.315 91.085 48.432 91.107 48.666 91.178 C 48.997 92.378 49.395 93.559 49.86 94.713 C 50.051 94.794 50.247 94.864 50.445 94.925 L 50.68 95.51 C 50.001 95.229 49.649 95.088 48.994 94.784 Z" style=""/>
  <path class="cls-2" d="M 51.569 95.837 C 51.489 95.646 51.418 95.451 51.359 95.252 C 51.261 95.21 51.159 95.179 51.055 95.159 C 50.961 94.925 50.937 94.807 50.843 94.573 C 50.745 94.531 50.644 94.5 50.539 94.48 C 50.282 93.777 50.164 93.402 49.954 92.677 C 50.058 92.697 50.16 92.728 50.258 92.77 C 50.188 92.536 50.164 92.396 50.094 92.138 C 50.211 92.161 50.282 92.185 50.422 92.208 C 50.352 91.951 50.329 91.833 50.258 91.576 C 50.633 91.67 50.843 91.717 51.242 91.787 C 51.288 92.044 51.335 92.185 51.382 92.443 C 51.522 92.466 51.569 92.489 51.71 92.512 C 51.78 92.77 51.803 92.91 51.874 93.145 C 52.014 93.168 52.061 93.192 52.201 93.215 C 52.389 93.988 52.482 94.362 52.693 95.112 C 52.576 95.065 52.506 95.065 52.389 95.018 C 52.459 95.276 52.506 95.392 52.576 95.627 C 52.459 95.58 52.389 95.58 52.272 95.533 C 52.342 95.767 52.389 95.884 52.459 96.142 C 52.085 96.025 51.921 95.955 51.569 95.837 Z M 51.64 95.346 L 52.248 95.533 C 51.944 94.573 51.803 94.058 51.546 93.051 C 51.406 93.028 51.359 93.004 51.218 92.981 C 51.148 92.723 51.124 92.606 51.055 92.349 C 50.797 92.278 50.68 92.255 50.422 92.185 C 50.68 93.192 50.82 93.683 51.148 94.643 C 51.265 94.69 51.335 94.69 51.452 94.737 C 51.522 94.971 51.569 95.112 51.64 95.346 Z" style=""/>
  <path class="cls-2" d="M 53.677 96.54 C 53.606 96.306 53.559 96.165 53.49 95.931 C 53.697 95.997 53.908 96.052 54.122 96.095 C 53.864 95.088 53.724 94.573 53.513 93.52 C 53.372 93.496 53.302 93.473 53.185 93.449 C 53.138 93.192 53.091 93.051 53.045 92.794 C 53.185 92.817 53.255 92.841 53.372 92.864 C 53.325 92.606 53.302 92.466 53.232 92.185 L 53.911 92.302 C 54.192 93.941 54.356 94.737 54.754 96.283 C 55.011 96.353 55.128 96.376 55.386 96.446 C 55.444 96.662 55.491 96.881 55.527 97.102 C 54.777 96.868 54.403 96.75 53.677 96.54 Z" style=""/>
  <path class="cls-2" d="M 56.51 97.289 C 56.463 97.032 56.416 96.891 56.369 96.634 C 56.229 96.61 56.182 96.587 56.041 96.563 C 55.995 96.306 55.948 96.165 55.901 95.908 C 55.76 95.884 55.69 95.861 55.573 95.837 C 55.409 95.041 55.315 94.643 55.175 93.824 C 55.315 93.847 55.386 93.871 55.527 93.894 C 55.48 93.613 55.456 93.473 55.409 93.215 C 55.55 93.238 55.62 93.238 55.76 93.262 L 55.644 92.559 C 56.065 92.63 56.276 92.653 56.697 92.7 C 56.744 92.981 56.744 93.122 56.791 93.402 C 56.931 93.426 57.002 93.426 57.142 93.449 C 57.189 93.73 57.189 93.871 57.236 94.152 C 57.376 94.175 57.446 94.175 57.587 94.199 C 57.704 95.041 57.774 95.463 57.891 96.283 C 57.776 96.255 57.659 96.24 57.54 96.236 C 57.587 96.516 57.61 96.634 57.657 96.915 C 57.517 96.891 57.446 96.868 57.33 96.844 C 57.376 97.102 57.4 97.242 57.446 97.5 C 57.095 97.43 56.885 97.383 56.51 97.289 Z M 56.697 96.704 C 56.918 96.74 57.137 96.786 57.353 96.844 C 57.165 95.767 57.072 95.229 56.908 94.105 C 56.767 94.081 56.697 94.081 56.557 94.058 C 56.51 93.777 56.486 93.636 56.463 93.356 L 55.76 93.238 C 55.925 94.339 56.018 94.901 56.229 95.955 C 56.369 95.978 56.439 96.002 56.557 96.025 C 56.604 96.306 56.651 96.446 56.697 96.704 Z" style=""/>
  <path class="cls-2" d="M 58.805 97.758 C 58.758 97.476 58.734 97.36 58.688 97.079 C 58.945 97.125 59.086 97.149 59.367 97.195 C 59.202 96.095 59.133 95.533 59.015 94.409 C 58.875 94.386 58.805 94.386 58.664 94.362 C 58.641 94.081 58.617 93.941 58.57 93.66 C 58.711 93.683 58.781 93.683 58.921 93.707 C 58.898 93.426 58.875 93.285 58.851 92.981 C 59.133 93.004 59.296 93.028 59.577 93.051 C 59.741 94.807 59.835 95.65 60.045 97.313 C 60.326 97.36 60.467 97.36 60.748 97.407 C 60.771 97.687 60.795 97.828 60.818 98.086 C 59.999 97.968 59.6 97.898 58.805 97.758 Z" style=""/>
  <path class="cls-2" d="M 61.848 98.179 C 61.825 97.898 61.802 97.758 61.778 97.476 C 61.638 97.453 61.568 97.453 61.427 97.43 C 61.403 97.149 61.38 97.008 61.357 96.728 C 61.216 96.704 61.146 96.704 61.005 96.681 C 60.912 95.837 60.889 95.416 60.795 94.55 C 60.919 94.57 61.044 94.578 61.17 94.573 C 61.146 94.292 61.146 94.128 61.123 93.847 C 61.263 93.847 61.333 93.871 61.497 93.871 C 61.474 93.589 61.474 93.426 61.45 93.145 C 61.895 93.168 62.129 93.192 62.574 93.215 C 62.598 93.52 62.598 93.66 62.621 93.964 C 62.761 93.964 62.855 93.988 62.996 93.988 C 63.019 94.292 63.019 94.433 63.043 94.713 C 63.168 94.71 63.294 94.718 63.418 94.737 C 63.464 95.627 63.487 96.048 63.534 96.915 C 63.394 96.915 63.324 96.891 63.183 96.891 C 63.206 97.172 63.206 97.313 63.23 97.594 C 63.089 97.594 63.019 97.57 62.879 97.57 C 62.902 97.851 62.902 97.992 62.926 98.273 C 62.481 98.249 62.27 98.226 61.848 98.179 Z M 62.153 97.523 C 62.434 97.547 62.574 97.57 62.855 97.594 C 62.761 96.47 62.738 95.908 62.668 94.737 C 62.527 94.737 62.434 94.713 62.294 94.713 C 62.27 94.433 62.27 94.269 62.247 93.988 C 61.942 93.964 61.802 93.964 61.497 93.941 C 61.591 95.112 61.615 95.697 61.731 96.821 C 61.847 96.841 61.965 96.848 62.082 96.844 C 62.106 97.102 62.129 97.242 62.153 97.523 Z" style=""/>
  <path class="cls-2" d="M 64.307 98.39 C 64.284 98.109 64.284 97.968 64.284 97.687 C 64.564 97.711 64.705 97.711 65.009 97.734 C 64.963 96.61 64.939 96.025 64.916 94.831 L 64.541 94.831 C 64.541 94.526 64.518 94.386 64.518 94.081 L 64.892 94.081 C 64.892 93.777 64.892 93.636 64.869 93.332 C 65.174 93.332 65.337 93.332 65.642 93.356 C 65.665 95.159 65.688 96.048 65.735 97.734 C 66.016 97.734 66.18 97.734 66.461 97.758 L 66.461 98.46 C 65.571 98.46 65.15 98.437 64.307 98.39 Z" style=""/>
  <path class="cls-2" d="M 50.352 98.296 C 50.188 98.132 50.118 98.039 49.977 97.874 C 49.902 97.818 49.831 97.755 49.766 97.687 C 49.626 97.523 49.532 97.43 49.392 97.266 C 49.316 97.209 49.246 97.147 49.181 97.079 C 48.736 96.563 48.502 96.306 48.104 95.767 C 48.198 95.837 48.244 95.861 48.338 95.931 C 48.221 95.78 48.112 95.625 48.01 95.463 C 48.104 95.533 48.151 95.557 48.244 95.627 C 48.104 95.439 48.057 95.346 47.916 95.159 C 48.221 95.346 48.361 95.439 48.666 95.604 L 48.97 96.095 C 49.048 96.156 49.135 96.203 49.228 96.236 L 49.532 96.728 C 49.615 96.787 49.701 96.842 49.79 96.891 C 50.164 97.476 50.352 97.758 50.75 98.319 C 50.656 98.249 50.609 98.226 50.516 98.156 C 50.656 98.343 50.726 98.437 50.867 98.6 C 50.792 98.544 50.721 98.481 50.656 98.413 C 50.797 98.6 50.867 98.671 51.031 98.858 C 50.79 98.689 50.563 98.502 50.352 98.296 Z M 50.188 98.062 C 50.352 98.202 50.445 98.296 50.633 98.437 C 50.149 97.844 49.695 97.227 49.275 96.587 C 49.181 96.516 49.134 96.493 49.04 96.423 C 48.9 96.236 48.853 96.142 48.713 95.955 L 48.221 95.65 C 48.642 96.281 49.104 96.883 49.603 97.453 C 49.678 97.509 49.748 97.573 49.813 97.64 C 49.95 97.77 50.075 97.911 50.188 98.062 Z" style=""/>
  <path class="cls-2" d="M 51.874 99.584 C 51.757 99.433 51.648 99.277 51.546 99.116 C 51.696 99.232 51.853 99.342 52.014 99.443 C 51.499 98.671 51.265 98.273 50.797 97.453 C 50.703 97.407 50.633 97.36 50.539 97.313 C 50.436 97.146 50.342 96.974 50.258 96.797 C 50.352 96.844 50.422 96.891 50.516 96.938 C 50.398 96.728 50.352 96.634 50.235 96.423 C 50.41 96.518 50.59 96.604 50.773 96.681 C 51.273 97.748 51.844 98.781 52.482 99.771 C 52.67 99.889 52.764 99.958 52.974 100.076 C 53.091 100.286 53.162 100.38 53.279 100.568 C 52.787 100.275 52.317 99.946 51.874 99.584 Z" style=""/>
  <path class="cls-2" d="M 53.981 101.082 C 53.864 100.872 53.817 100.778 53.7 100.568 C 53.617 100.516 53.531 100.469 53.443 100.427 C 53.325 100.216 53.279 100.122 53.162 99.912 C 53.078 99.86 52.992 99.813 52.904 99.771 C 52.553 99.163 52.389 98.835 52.085 98.202 C 52.177 98.235 52.265 98.283 52.342 98.343 C 52.266 98.159 52.18 97.979 52.085 97.805 L 52.366 97.921 C 52.272 97.687 52.225 97.594 52.131 97.36 C 52.459 97.5 52.646 97.57 52.974 97.711 L 53.208 98.296 L 53.49 98.413 C 53.583 98.647 53.63 98.765 53.724 98.975 L 54.004 99.092 C 54.262 99.771 54.426 100.122 54.707 100.755 C 54.617 100.717 54.53 100.67 54.449 100.614 C 54.526 100.798 54.612 100.978 54.707 101.153 C 54.613 101.106 54.543 101.059 54.449 101.012 C 54.543 101.223 54.613 101.34 54.707 101.527 C 54.426 101.34 54.262 101.246 53.981 101.082 Z M 53.934 100.708 L 54.449 100.988 C 54.028 100.146 53.841 99.701 53.466 98.811 L 53.185 98.694 C 53.091 98.46 53.045 98.366 52.951 98.132 C 52.717 98.039 52.623 97.992 52.389 97.898 C 52.787 98.788 52.998 99.21 53.419 100.052 C 53.502 100.104 53.588 100.151 53.677 100.193 C 53.77 100.403 53.841 100.497 53.934 100.708 Z" style=""/>
  <path class="cls-2" d="M 55.714 102.066 C 55.62 101.855 55.573 101.738 55.48 101.527 C 55.69 101.621 55.807 101.692 55.995 101.785 C 55.644 100.895 55.456 100.45 55.128 99.49 L 54.848 99.373 C 54.754 99.139 54.73 99.022 54.636 98.788 C 54.754 98.835 54.824 98.858 54.918 98.905 C 54.848 98.671 54.801 98.553 54.73 98.296 C 54.964 98.366 55.082 98.413 55.339 98.484 C 55.784 99.958 56.018 100.661 56.533 101.996 L 57.072 102.23 C 57.165 102.464 57.189 102.581 57.283 102.791 C 56.747 102.579 56.223 102.337 55.714 102.066 Z" style=""/>
  <path class="cls-2" d="M 58.102 103.143 C 58.032 102.909 57.985 102.791 57.915 102.558 L 57.634 102.44 C 57.564 102.206 57.517 102.089 57.446 101.855 C 57.357 101.814 57.262 101.782 57.165 101.761 C 56.931 101.059 56.814 100.708 56.604 99.982 C 56.72 100.029 56.791 100.029 56.908 100.076 C 56.838 99.842 56.814 99.701 56.744 99.467 C 56.848 99.487 56.951 99.519 57.049 99.561 C 56.978 99.303 56.955 99.186 56.885 98.928 L 57.821 99.163 C 57.868 99.42 57.915 99.537 57.962 99.795 C 58.079 99.818 58.149 99.842 58.266 99.865 C 58.313 100.122 58.36 100.24 58.407 100.497 C 58.523 100.521 58.594 100.544 58.711 100.568 C 58.875 101.317 58.968 101.692 59.156 102.417 C 59.059 102.396 58.965 102.365 58.875 102.324 C 58.945 102.558 58.968 102.675 59.039 102.909 C 58.921 102.862 58.875 102.862 58.758 102.815 C 58.828 103.049 58.851 103.166 58.921 103.401 C 58.639 103.347 58.365 103.261 58.102 103.143 Z M 58.196 102.675 C 58.43 102.745 58.523 102.791 58.758 102.862 C 58.5 101.925 58.36 101.434 58.125 100.427 C 58.009 100.403 57.938 100.38 57.821 100.356 C 57.763 100.148 57.716 99.937 57.681 99.724 C 57.446 99.654 57.306 99.631 57.072 99.561 C 57.33 100.544 57.47 101.035 57.751 101.972 C 57.868 102.019 57.915 102.019 58.032 102.066 C 58.073 102.272 58.128 102.476 58.196 102.675 Z" style=""/>
  <path class="cls-2" d="M 60.326 103.892 C 60.279 103.658 60.233 103.541 60.186 103.307 C 60.069 103.283 60.022 103.26 59.905 103.237 C 59.858 103.003 59.812 102.885 59.765 102.628 C 59.647 102.604 59.577 102.581 59.484 102.558 C 59.32 101.832 59.226 101.457 59.062 100.708 C 59.179 100.731 59.249 100.755 59.367 100.778 C 59.32 100.521 59.296 100.403 59.249 100.146 C 59.367 100.169 59.437 100.193 59.577 100.216 C 59.531 99.958 59.507 99.818 59.46 99.561 C 59.835 99.631 60.045 99.677 60.444 99.748 C 60.486 99.965 60.518 100.183 60.537 100.403 C 60.654 100.427 60.724 100.427 60.865 100.45 C 60.912 100.708 60.912 100.848 60.958 101.106 C 61.076 101.129 61.146 101.129 61.287 101.153 C 61.403 101.925 61.474 102.324 61.591 103.049 C 61.474 103.026 61.403 103.003 61.287 102.979 C 61.333 103.237 61.357 103.354 61.403 103.588 C 61.287 103.564 61.216 103.541 61.099 103.517 C 61.146 103.752 61.17 103.892 61.216 104.127 C 60.915 104.068 60.617 103.99 60.326 103.892 Z M 60.467 103.377 C 60.66 103.435 60.855 103.482 61.052 103.517 C 60.865 102.534 60.771 102.043 60.607 101.012 C 60.497 100.998 60.387 100.974 60.279 100.942 C 60.233 100.684 60.21 100.568 60.163 100.286 L 59.531 100.169 C 59.718 101.2 59.812 101.714 60.022 102.675 C 60.139 102.698 60.21 102.722 60.326 102.745 C 60.397 103.026 60.42 103.143 60.467 103.377 Z" style=""/>
  <path class="cls-2" d="M 62.34 104.384 C 62.294 104.15 62.294 104.009 62.247 103.775 C 62.447 103.819 62.651 103.851 62.855 103.869 C 62.715 102.885 62.668 102.371 62.551 101.317 C 62.434 101.293 62.363 101.293 62.223 101.27 C 62.2 101.012 62.176 100.872 62.153 100.614 C 62.294 100.637 62.34 100.637 62.481 100.661 C 62.457 100.403 62.434 100.263 62.41 100.005 C 62.668 100.029 62.808 100.052 63.089 100.076 C 63.23 101.692 63.324 102.464 63.487 103.962 C 63.722 103.986 63.862 104.009 64.097 104.033 C 64.12 104.29 64.12 104.407 64.143 104.665 C 63.394 104.571 63.043 104.524 62.34 104.384 Z" style=""/>
  <path class="cls-2" d="M 64.705 104.735 C 64.682 104.478 64.682 104.361 64.658 104.103 C 64.892 104.127 65.033 104.127 65.267 104.15 C 65.22 103.143 65.174 102.628 65.127 101.574 C 65.017 101.579 64.907 101.571 64.799 101.551 C 64.779 101.325 64.771 101.099 64.776 100.872 C 64.885 100.867 64.995 100.875 65.103 100.895 C 65.103 100.614 65.08 100.497 65.08 100.216 C 65.361 100.24 65.501 100.24 65.759 100.24 C 65.806 101.879 65.829 102.675 65.876 104.173 C 66.133 104.173 66.25 104.196 66.508 104.196 L 66.508 104.829 C 65.906 104.832 65.304 104.801 64.705 104.735 Z" style=""/>
  <path class="cls-2" d="M 68.451 61.629 C 68.455 61.402 68.448 61.175 68.428 60.95 L 68.077 60.95 C 68.081 60.731 68.073 60.512 68.053 60.294 L 67.725 60.294 C 67.725 59.498 67.702 59.1 67.702 58.35 L 68.03 58.35 C 68.034 58.139 68.026 57.928 68.007 57.718 L 68.311 57.718 C 68.311 57.461 68.288 57.344 68.288 57.11 C 68.639 57.133 68.826 57.133 69.201 57.18 C 69.224 57.414 69.224 57.554 69.248 57.789 C 69.365 57.789 69.435 57.812 69.552 57.812 C 69.575 58.069 69.575 58.187 69.599 58.444 C 69.716 58.444 69.786 58.468 69.903 58.468 C 69.973 59.217 69.997 59.615 70.044 60.411 C 69.903 60.411 69.856 60.387 69.716 60.387 C 69.739 60.645 69.739 60.785 69.763 61.043 C 69.622 61.043 69.552 61.02 69.435 61.02 C 69.455 61.245 69.463 61.472 69.458 61.699 C 69.125 61.651 68.789 61.628 68.451 61.629 Z M 68.779 60.95 C 69.037 60.95 69.177 60.973 69.458 60.973 C 69.412 59.896 69.365 59.381 69.318 58.374 C 69.201 58.374 69.13 58.35 69.014 58.35 C 68.994 58.14 68.986 57.929 68.99 57.718 C 68.787 57.699 68.584 57.691 68.381 57.695 C 68.428 58.702 68.428 59.217 68.475 60.271 C 68.585 60.266 68.695 60.274 68.802 60.294 C 68.76 60.51 68.752 60.731 68.779 60.95 Z" style=""/>
  <path class="cls-2" d="M 70.817 61.769 C 70.793 61.511 70.793 61.371 70.77 61.09 C 71.027 61.113 71.168 61.137 71.425 61.16 C 71.308 60.106 71.261 59.592 71.144 58.585 C 71.027 58.561 70.957 58.561 70.839 58.538 C 70.817 58.28 70.793 58.163 70.77 57.906 C 70.886 57.929 70.957 57.929 71.074 57.952 C 71.051 57.695 71.027 57.578 71.004 57.344 C 71.238 57.39 71.355 57.39 71.589 57.437 C 71.8 58.889 71.917 59.662 72.104 61.23 C 72.324 61.25 72.543 61.282 72.76 61.324 C 72.78 61.544 72.811 61.763 72.854 61.98 C 72.034 61.886 71.636 61.839 70.817 61.769 Z" style=""/>
  <path class="cls-2" d="M 73.79 62.167 C 73.747 61.95 73.716 61.731 73.696 61.511 C 73.579 61.488 73.509 61.488 73.368 61.464 C 73.326 61.248 73.294 61.029 73.275 60.809 C 73.158 60.785 73.087 60.785 72.947 60.762 C 72.83 59.99 72.76 59.615 72.642 58.866 C 72.76 58.889 72.83 58.913 72.947 58.936 C 72.9 58.702 72.877 58.561 72.83 58.327 C 72.947 58.35 73.017 58.374 73.111 58.397 C 73.064 58.163 73.041 58.046 72.994 57.789 C 73.345 57.882 73.509 57.929 73.837 58.023 C 73.884 58.257 73.931 58.374 73.978 58.608 C 74.074 58.629 74.168 58.66 74.258 58.702 C 74.305 58.936 74.352 59.053 74.399 59.311 C 74.497 59.328 74.591 59.359 74.68 59.404 C 74.867 60.13 74.937 60.505 75.101 61.254 C 74.984 61.23 74.914 61.207 74.797 61.184 C 74.844 61.441 74.867 61.558 74.914 61.816 C 74.797 61.792 74.726 61.769 74.61 61.746 C 74.657 62.003 74.68 62.121 74.726 62.401 C 74.425 62.285 74.111 62.206 73.79 62.167 Z M 74.001 61.582 L 74.633 61.699 C 74.445 60.669 74.329 60.177 74.118 59.193 C 74.001 59.17 73.931 59.147 73.837 59.123 C 73.801 58.918 73.754 58.715 73.696 58.515 C 73.504 58.457 73.309 58.409 73.111 58.374 C 73.299 59.334 73.392 59.849 73.579 60.856 C 73.696 60.879 73.766 60.903 73.884 60.926 C 73.945 61.14 73.985 61.36 74.001 61.582 Z" style=""/>
  <path class="cls-2" d="M 76.342 62.706 C 76.295 62.448 76.248 62.331 76.202 62.074 C 76.085 62.05 76.015 62.027 75.897 62.003 C 75.85 61.746 75.803 61.629 75.757 61.371 C 75.64 61.348 75.569 61.324 75.452 61.301 C 75.289 60.551 75.195 60.177 75.008 59.474 C 75.105 59.495 75.198 59.526 75.289 59.568 C 75.218 59.334 75.195 59.217 75.124 58.982 C 75.242 59.029 75.289 59.029 75.406 59.076 C 75.336 58.842 75.312 58.725 75.242 58.491 C 75.569 58.608 75.734 58.678 76.061 58.795 C 76.132 59.029 76.178 59.147 76.248 59.357 L 76.529 59.474 C 76.6 59.708 76.647 59.826 76.717 60.06 L 76.998 60.177 C 77.232 60.879 77.349 61.23 77.56 61.956 C 77.443 61.909 77.372 61.909 77.255 61.863 C 77.326 62.097 77.349 62.237 77.419 62.472 C 77.315 62.451 77.212 62.419 77.115 62.378 C 77.185 62.635 77.208 62.753 77.279 63.01 C 76.978 62.877 76.664 62.775 76.342 62.706 Z M 76.506 62.143 C 76.74 62.214 76.881 62.237 77.115 62.308 C 76.857 61.324 76.717 60.832 76.436 59.896 C 76.346 59.854 76.252 59.823 76.155 59.802 C 76.085 59.568 76.038 59.451 75.968 59.217 C 75.785 59.14 75.597 59.078 75.406 59.029 C 75.663 59.966 75.803 60.434 76.038 61.441 C 76.142 61.461 76.244 61.493 76.342 61.535 C 76.413 61.769 76.436 61.909 76.506 62.143 Z" style=""/>
  <path class="cls-2" d="M 78.801 63.385 C 78.73 63.151 78.684 63.01 78.613 62.776 C 78.516 62.734 78.413 62.703 78.309 62.682 C 78.239 62.448 78.192 62.331 78.122 62.074 C 78.03 62.035 77.937 62.004 77.841 61.98 C 77.63 61.254 77.513 60.903 77.255 60.224 L 77.537 60.341 C 77.443 60.106 77.419 59.99 77.326 59.779 C 77.413 59.813 77.499 59.852 77.583 59.896 C 77.503 59.712 77.433 59.525 77.372 59.334 C 77.677 59.474 77.841 59.568 78.145 59.708 C 78.239 59.919 78.285 60.036 78.379 60.247 C 78.467 60.281 78.553 60.321 78.637 60.364 C 78.73 60.575 78.777 60.692 78.871 60.903 C 78.959 60.937 79.045 60.976 79.129 61.02 C 79.409 61.675 79.55 62.003 79.831 62.706 L 79.55 62.588 C 79.644 62.823 79.667 62.94 79.761 63.174 L 79.48 63.057 C 79.574 63.291 79.597 63.408 79.69 63.642 C 79.388 63.578 79.091 63.492 78.801 63.385 Z M 78.895 62.893 C 79.129 62.987 79.246 63.01 79.48 63.104 C 79.152 62.167 78.988 61.699 78.613 60.809 C 78.525 60.775 78.44 60.735 78.356 60.692 C 78.262 60.458 78.216 60.364 78.122 60.13 L 77.583 59.896 C 77.934 60.785 78.098 61.254 78.403 62.19 L 78.684 62.308 C 78.764 62.499 78.834 62.694 78.895 62.893 Z" style=""/>
  <path class="cls-2" d="M 80.861 64.134 L 80.627 63.549 C 80.861 63.642 80.955 63.689 81.189 63.783 C 80.814 62.893 80.604 62.448 80.182 61.605 C 80.088 61.558 80.018 61.511 79.925 61.464 C 79.831 61.254 79.761 61.137 79.667 60.95 C 79.75 61.001 79.836 61.048 79.925 61.09 C 79.808 60.879 79.761 60.785 79.644 60.575 C 79.831 60.692 79.925 60.762 80.135 60.879 C 80.748 61.893 81.288 62.95 81.751 64.04 C 81.935 64.117 82.115 64.203 82.29 64.298 C 82.383 64.509 82.454 64.625 82.547 64.836 C 81.868 64.532 81.54 64.391 80.861 64.134 Z" style=""/>
  <path class="cls-2" d="M 83.086 65.094 C 82.992 64.883 82.922 64.766 82.828 64.556 C 83.039 64.672 83.156 64.719 83.367 64.836 C 82.922 63.993 82.688 63.595 82.196 62.823 C 82.102 62.753 82.056 62.729 81.962 62.659 L 81.657 62.167 C 81.751 62.237 81.798 62.261 81.891 62.331 C 81.79 62.169 81.681 62.013 81.564 61.863 C 81.751 62.003 81.844 62.074 82.009 62.214 C 82.713 63.14 83.347 64.119 83.905 65.141 L 84.42 65.422 C 84.538 65.633 84.607 65.726 84.725 65.937 C 84.069 65.586 83.741 65.422 83.086 65.094 Z" style=""/>
  <path class="cls-2" d="M 85.193 66.218 C 85.076 66.007 85.005 65.914 84.889 65.726 C 85.099 65.843 85.193 65.914 85.38 66.03 C 84.96 65.391 84.507 64.773 84.022 64.181 C 83.928 64.111 83.882 64.064 83.788 63.993 C 83.647 63.806 83.577 63.736 83.437 63.549 C 83.512 63.605 83.583 63.668 83.647 63.736 C 83.507 63.572 83.414 63.478 83.273 63.314 C 83.437 63.455 83.531 63.549 83.694 63.712 C 84.488 64.53 85.209 65.416 85.849 66.359 C 86.01 66.46 86.166 66.569 86.317 66.686 C 86.434 66.837 86.543 66.993 86.645 67.154 C 86.188 66.802 85.702 66.488 85.193 66.218 Z" style=""/>
  <path class="cls-2" d="M 68.639 69.987 L 68.639 69.238 L 68.241 69.238 L 68.241 68.489 L 67.866 68.489 C 67.866 67.599 67.866 67.154 67.843 66.265 L 68.217 66.265 L 68.217 65.539 L 68.592 65.539 C 68.592 65.258 68.592 65.094 68.569 64.813 C 69.014 64.813 69.224 64.836 69.646 64.86 C 69.646 65.141 69.669 65.281 69.669 65.586 C 69.794 65.582 69.92 65.591 70.044 65.609 C 70.067 65.89 70.067 66.03 70.067 66.335 C 70.192 66.332 70.318 66.339 70.442 66.359 C 70.488 67.225 70.512 67.67 70.535 68.559 C 70.41 68.563 70.284 68.556 70.16 68.536 C 70.16 68.841 70.184 68.981 70.184 69.285 L 69.809 69.285 C 69.809 69.589 69.833 69.73 69.833 70.034 C 69.341 70.011 69.107 70.011 68.639 69.987 Z M 69.014 69.238 C 69.318 69.238 69.481 69.238 69.786 69.262 C 69.763 68.068 69.739 67.459 69.693 66.312 C 69.567 66.315 69.442 66.307 69.318 66.288 C 69.318 66.007 69.294 65.843 69.294 65.562 C 69.014 65.562 68.849 65.539 68.569 65.539 C 68.592 66.686 68.615 67.272 68.615 68.489 L 68.99 68.489 C 68.99 68.794 69.014 68.934 69.014 69.238 Z" style=""/>
  <path class="cls-2" d="M 71.331 70.081 C 71.308 69.777 71.308 69.636 71.308 69.332 C 71.612 69.355 71.753 69.355 72.057 69.379 C 71.987 68.184 71.963 67.599 71.87 66.452 C 71.73 66.452 71.659 66.428 71.519 66.428 C 71.496 66.147 71.496 66.007 71.472 65.702 C 71.612 65.702 71.683 65.726 71.823 65.726 C 71.8 65.445 71.8 65.305 71.776 65.023 C 72.057 65.047 72.198 65.07 72.479 65.094 C 72.642 66.78 72.713 67.646 72.807 69.426 C 73.111 69.449 73.252 69.449 73.556 69.473 C 73.579 69.777 73.579 69.917 73.603 70.222 C 72.713 70.152 72.268 70.128 71.331 70.081 Z" style=""/>
  <path class="cls-2" d="M 74.726 70.292 C 74.716 70.049 74.693 69.806 74.657 69.566 C 74.533 69.547 74.407 69.539 74.282 69.543 C 74.258 69.238 74.235 69.098 74.211 68.817 C 74.088 68.797 73.962 68.789 73.837 68.794 C 73.766 67.904 73.72 67.482 73.65 66.639 C 73.79 66.663 73.86 66.663 74.001 66.686 C 73.978 66.405 73.954 66.265 73.931 65.984 C 74.071 66.007 74.141 66.007 74.282 66.03 C 74.258 65.749 74.235 65.609 74.188 65.328 C 74.61 65.375 74.797 65.422 75.218 65.469 C 75.265 65.749 75.265 65.89 75.312 66.147 C 75.452 66.171 75.523 66.171 75.663 66.194 C 75.71 66.475 75.71 66.616 75.757 66.897 C 75.897 66.92 75.968 66.92 76.108 66.944 C 76.225 67.787 76.272 68.208 76.389 69.051 C 76.248 69.028 76.178 69.028 76.038 69.004 C 76.061 69.285 76.085 69.426 76.108 69.73 C 75.968 69.707 75.897 69.707 75.757 69.683 C 75.78 69.964 75.803 70.128 75.827 70.409 C 75.406 70.362 75.195 70.339 74.726 70.292 Z M 75.055 69.589 C 75.336 69.613 75.499 69.636 75.78 69.66 C 75.663 68.489 75.593 67.927 75.452 66.803 C 75.312 66.78 75.242 66.78 75.101 66.756 C 75.078 66.475 75.055 66.335 75.008 66.054 C 74.726 66.007 74.586 66.007 74.305 65.96 C 74.445 67.084 74.492 67.646 74.61 68.817 C 74.734 68.837 74.859 68.845 74.984 68.841 C 74.995 69.091 75.019 69.341 75.055 69.589 Z" style=""/>
  <path class="cls-2" d="M 77.677 70.597 C 77.653 70.315 77.63 70.175 77.583 69.871 C 77.443 69.847 77.372 69.847 77.232 69.824 C 77.208 69.543 77.185 69.402 77.139 69.121 C 76.998 69.098 76.927 69.098 76.787 69.075 C 76.67 68.231 76.623 67.787 76.506 66.967 C 76.647 66.991 76.717 66.991 76.857 67.014 C 76.811 66.733 76.787 66.593 76.74 66.335 C 76.881 66.359 76.951 66.359 77.092 66.381 C 77.045 66.101 77.021 65.984 76.974 65.702 C 77.372 65.773 77.583 65.82 77.981 65.914 C 78.017 66.134 78.064 66.353 78.122 66.569 C 78.262 66.593 78.332 66.616 78.45 66.639 C 78.496 66.897 78.52 67.038 78.567 67.318 C 78.707 67.342 78.777 67.365 78.895 67.389 C 79.058 68.184 79.129 68.606 79.246 69.426 C 79.105 69.402 79.035 69.402 78.895 69.379 L 79.011 70.081 C 78.871 70.058 78.801 70.058 78.66 70.034 C 78.707 70.315 78.707 70.456 78.754 70.737 C 78.309 70.666 78.098 70.643 77.677 70.597 Z M 77.934 69.917 C 78.216 69.964 78.356 69.964 78.637 70.011 C 78.473 68.887 78.403 68.325 78.192 67.248 C 78.051 67.225 77.981 67.201 77.841 67.178 C 77.794 66.897 77.771 66.78 77.724 66.499 C 77.466 66.452 77.326 66.428 77.045 66.381 C 77.232 67.459 77.302 68.021 77.466 69.145 C 77.606 69.168 77.677 69.168 77.818 69.192 C 77.888 69.496 77.888 69.636 77.934 69.917 Z" style=""/>
  <path class="cls-2" d="M 80.159 70.901 L 80.041 70.199 C 80.323 70.245 80.463 70.268 80.721 70.315 C 80.533 69.238 80.416 68.7 80.182 67.646 C 80.041 67.623 79.995 67.599 79.854 67.576 C 79.808 67.318 79.761 67.178 79.714 66.92 C 79.854 66.944 79.901 66.967 80.041 66.991 C 79.972 66.733 79.948 66.593 79.878 66.335 C 80.135 66.405 80.253 66.428 80.51 66.499 C 80.908 68.021 81.095 68.794 81.4 70.409 L 82.079 70.526 C 82.126 70.784 82.149 70.924 82.196 71.205 C 81.4 71.111 80.978 71.041 80.159 70.901 Z" style=""/>
  <path class="cls-2" d="M 82.875 71.369 C 82.839 71.148 82.792 70.929 82.735 70.713 C 82.955 70.749 83.174 70.796 83.39 70.854 C 83.156 69.824 83.039 69.308 82.758 68.325 C 82.653 68.305 82.551 68.273 82.454 68.231 C 82.383 67.974 82.336 67.857 82.266 67.599 C 82.371 67.62 82.473 67.651 82.57 67.693 C 82.5 67.459 82.454 67.318 82.383 67.084 L 82.992 67.272 C 83.42 68.482 83.772 69.717 84.046 70.971 C 84.303 71.018 84.444 71.065 84.701 71.111 C 84.759 71.32 84.806 71.531 84.842 71.744 C 84.093 71.58 83.694 71.51 82.875 71.369 Z" style=""/>
  <path class="cls-2" d="M 85.825 71.955 C 85.755 71.697 85.731 71.58 85.662 71.345 C 85.544 71.323 85.474 71.299 85.333 71.276 C 85.263 71.018 85.24 70.901 85.17 70.666 C 85.052 70.643 84.982 70.62 84.865 70.597 C 84.654 69.847 84.561 69.496 84.303 68.77 C 84.42 68.817 84.491 68.817 84.607 68.863 C 84.548 68.665 84.477 68.47 84.397 68.278 C 84.495 68.32 84.597 68.352 84.701 68.372 C 84.607 68.138 84.584 68.021 84.491 67.787 C 84.842 67.927 85.005 67.974 85.357 68.115 C 85.45 68.349 85.497 68.442 85.591 68.676 L 85.872 68.794 C 85.966 69.028 86.013 69.121 86.106 69.355 L 86.387 69.473 C 86.645 70.152 86.785 70.479 87.02 71.182 C 86.915 71.161 86.813 71.13 86.715 71.088 C 86.785 71.323 86.832 71.439 86.902 71.674 C 86.798 71.653 86.696 71.621 86.598 71.58 C 86.667 71.779 86.721 71.982 86.762 72.189 L 85.825 71.955 Z M 85.966 71.416 C 86.223 71.486 86.341 71.51 86.575 71.58 C 86.294 70.62 86.129 70.152 85.778 69.238 C 85.68 69.197 85.579 69.165 85.474 69.145 C 85.38 68.91 85.357 68.794 85.263 68.559 C 85.029 68.466 84.912 68.442 84.678 68.349 C 85.029 69.285 85.17 69.753 85.45 70.713 C 85.555 70.734 85.657 70.765 85.755 70.807 C 85.843 71.004 85.913 71.207 85.966 71.416 Z" style=""/>
  <path class="cls-2" d="M 88.284 72.587 C 88.213 72.353 88.166 72.235 88.097 72.025 C 87.992 72.005 87.89 71.973 87.792 71.931 C 87.722 71.697 87.675 71.58 87.605 71.369 C 87.487 71.323 87.418 71.323 87.3 71.276 C 87.066 70.597 86.949 70.245 86.668 69.589 L 86.949 69.707 C 86.855 69.496 86.808 69.379 86.715 69.168 L 86.996 69.285 C 86.92 69.101 86.834 68.921 86.738 68.747 C 87.066 68.887 87.23 68.957 87.558 69.121 C 87.653 69.288 87.739 69.46 87.815 69.636 C 87.903 69.671 87.989 69.71 88.073 69.753 C 88.168 69.921 88.254 70.092 88.331 70.268 L 88.611 70.386 C 88.916 70.994 89.056 71.323 89.314 71.955 C 89.197 71.908 89.15 71.908 89.033 71.861 C 89.127 72.071 89.15 72.189 89.244 72.399 C 89.127 72.353 89.08 72.353 88.963 72.306 C 89.033 72.516 89.08 72.634 89.15 72.868 C 88.87 72.75 88.58 72.655 88.284 72.587 Z M 88.401 72.095 C 88.635 72.165 88.752 72.212 88.986 72.282 C 88.731 71.544 88.425 70.825 88.073 70.128 L 87.792 70.011 C 87.72 69.833 87.634 69.66 87.534 69.496 C 87.324 69.402 87.207 69.355 86.973 69.262 C 87.315 69.979 87.62 70.714 87.886 71.463 C 88.003 71.51 88.073 71.51 88.166 71.556 C 88.263 71.727 88.341 71.908 88.401 72.095 Z" style=""/>
  <path class="cls-2" d="M 68.709 79.189 L 68.709 78.37 L 68.288 78.37 L 68.288 77.551 L 67.866 77.551 L 67.866 75.139 L 68.264 75.139 L 68.264 74.343 L 68.662 74.343 L 68.662 73.547 C 69.154 73.547 69.388 73.547 69.856 73.57 C 69.856 73.874 69.856 74.038 69.88 74.366 L 70.278 74.366 C 70.278 74.694 70.278 74.835 70.301 75.163 L 70.699 75.163 C 70.723 76.122 70.723 76.591 70.723 77.574 L 70.325 77.574 L 70.325 78.393 L 69.927 78.393 L 69.927 79.213 C 69.458 79.189 69.201 79.189 68.709 79.189 Z M 69.13 78.37 L 69.95 78.37 C 69.95 77.059 69.927 76.427 69.927 75.163 L 69.528 75.163 L 69.528 74.366 L 68.732 74.366 C 68.732 75.63 68.756 76.263 68.756 77.574 L 69.177 77.574 C 69.137 77.838 69.122 78.104 69.13 78.37 Z" style=""/>
  <path class="cls-2" d="M 71.565 79.213 L 71.565 78.393 L 72.362 78.393 C 72.338 77.106 72.338 76.474 72.291 75.209 L 71.894 75.209 C 71.894 74.881 71.894 74.741 71.87 74.413 L 72.268 74.413 C 72.268 74.109 72.245 73.945 72.245 73.64 C 72.549 73.64 72.713 73.664 73.017 73.664 C 73.087 75.514 73.111 76.474 73.134 78.393 L 73.931 78.393 L 73.931 79.189 C 73.017 79.213 72.526 79.213 71.565 79.213 Z" style=""/>
  <path class="cls-2" d="M 75.148 79.236 C 75.148 78.909 75.148 78.768 75.124 78.44 L 74.726 78.44 C 74.726 78.112 74.726 77.972 74.703 77.644 L 74.305 77.644 C 74.282 76.684 74.282 76.216 74.235 75.279 C 74.368 75.276 74.501 75.283 74.633 75.303 C 74.633 74.998 74.61 74.835 74.61 74.53 C 74.735 74.526 74.86 74.533 74.984 74.553 C 74.961 74.249 74.961 74.085 74.937 73.781 C 75.406 73.804 75.616 73.827 76.085 73.851 C 76.108 74.155 76.108 74.319 76.132 74.6 C 76.257 74.597 76.382 74.604 76.506 74.624 C 76.529 74.928 76.529 75.092 76.553 75.396 C 76.678 75.392 76.804 75.401 76.927 75.42 C 76.974 76.333 76.998 76.801 77.021 77.738 L 76.647 77.738 C 76.647 78.042 76.67 78.206 76.67 78.511 L 76.295 78.511 C 76.295 78.815 76.295 78.979 76.319 79.307 C 75.93 79.26 75.539 79.236 75.148 79.236 Z M 75.523 78.44 C 75.827 78.44 75.991 78.44 76.295 78.464 C 76.272 77.199 76.248 76.591 76.178 75.35 C 76.053 75.353 75.927 75.345 75.803 75.326 C 75.78 75.022 75.78 74.858 75.757 74.553 C 75.452 74.53 75.289 74.53 74.984 74.506 C 75.031 75.748 75.078 76.356 75.101 77.621 L 75.499 77.621 C 75.523 77.972 75.523 78.136 75.523 78.44 Z" style=""/>
  <path class="cls-2" d="M 78.239 79.283 C 78.239 78.979 78.239 78.815 78.216 78.511 L 77.841 78.511 C 77.841 78.206 77.818 78.042 77.818 77.738 L 77.443 77.738 C 77.419 76.801 77.396 76.356 77.349 75.443 C 77.474 75.439 77.6 75.447 77.724 75.467 C 77.7 75.163 77.7 75.022 77.677 74.717 C 77.818 74.717 77.911 74.741 78.051 74.741 C 78.028 74.437 78.028 74.296 78.005 73.992 C 78.45 74.015 78.684 74.038 79.105 74.085 C 79.129 74.39 79.152 74.53 79.175 74.811 C 79.316 74.811 79.409 74.835 79.55 74.835 C 79.574 75.139 79.574 75.279 79.597 75.583 C 79.737 75.583 79.831 75.607 79.972 75.607 C 80.041 76.497 80.065 76.942 80.088 77.832 C 79.963 77.835 79.838 77.827 79.714 77.808 C 79.714 78.112 79.737 78.253 79.737 78.557 L 79.363 78.557 C 79.363 78.862 79.386 79.026 79.386 79.33 C 78.942 79.307 78.707 79.307 78.239 79.283 Z M 78.613 78.511 C 78.918 78.511 79.058 78.511 79.363 78.534 C 79.316 77.317 79.293 76.708 79.222 75.514 C 79.082 75.514 78.988 75.49 78.848 75.49 C 78.824 75.186 78.824 75.045 78.801 74.741 C 78.496 74.717 78.356 74.717 78.051 74.694 C 78.145 75.888 78.169 76.497 78.216 77.738 C 78.341 77.734 78.466 77.742 78.59 77.761 C 78.59 78.065 78.59 78.206 78.613 78.511 Z" style=""/>
  <path class="cls-2" d="M 80.885 79.33 C 80.885 79.026 80.885 78.885 80.861 78.581 C 81.166 78.581 81.306 78.604 81.587 78.604 C 81.54 77.41 81.493 76.825 81.4 75.677 C 81.259 75.677 81.189 75.654 81.049 75.654 C 81.025 75.373 81.025 75.209 80.978 74.928 C 81.119 74.928 81.189 74.951 81.33 74.951 C 81.306 74.671 81.283 74.53 81.259 74.226 C 81.54 74.249 81.681 74.272 81.962 74.296 C 82.149 75.982 82.219 76.848 82.29 78.628 C 82.57 78.628 82.735 78.651 83.015 78.651 C 83.015 78.932 83.039 79.096 83.039 79.377 C 82.196 79.377 81.775 79.354 80.885 79.33 Z" style=""/>
  <path class="cls-2" d="M 83.788 79.424 C 83.788 79.143 83.765 78.979 83.765 78.698 C 84.046 78.698 84.186 78.722 84.467 78.722 C 84.42 77.598 84.373 77.035 84.256 75.935 C 84.141 75.915 84.023 75.908 83.905 75.912 C 83.882 75.63 83.859 75.49 83.835 75.209 C 83.975 75.232 84.046 75.232 84.186 75.256 C 84.168 75.028 84.137 74.801 84.093 74.577 C 84.32 74.595 84.547 74.626 84.772 74.671 C 84.976 76.029 85.109 77.396 85.17 78.768 C 85.45 78.768 85.591 78.791 85.872 78.791 C 85.896 79.073 85.896 79.213 85.896 79.494 C 85.052 79.447 84.631 79.447 83.788 79.424 Z" style=""/>
  <path class="cls-2" d="M 86.575 79.494 C 86.575 79.213 86.551 79.073 86.551 78.815 C 86.777 78.835 87.003 78.842 87.23 78.838 C 87.16 77.761 87.113 77.246 86.973 76.193 C 86.832 76.169 86.762 76.169 86.645 76.146 C 86.625 75.926 86.594 75.707 86.551 75.49 C 86.692 75.514 86.762 75.514 86.879 75.537 C 86.834 75.32 86.803 75.101 86.785 74.881 C 87.043 74.928 87.183 74.928 87.441 74.975 C 87.692 76.249 87.848 77.541 87.909 78.838 C 88.166 78.862 88.307 78.862 88.565 78.885 C 88.588 79.143 88.588 79.283 88.611 79.541 C 87.769 79.541 87.371 79.541 86.575 79.494 Z" style=""/>
  <path class="cls-2" d="M 89.22 79.611 C 89.216 79.399 89.201 79.188 89.174 78.979 C 89.431 79.002 89.548 79.002 89.806 79.026 C 89.754 78.201 89.652 77.38 89.502 76.567 C 89.384 76.544 89.314 76.544 89.197 76.52 C 89.15 76.286 89.127 76.146 89.08 75.912 C 89.197 75.935 89.267 75.935 89.384 75.958 L 89.267 75.373 C 89.525 75.42 89.642 75.443 89.876 75.49 C 90.15 76.668 90.33 77.866 90.414 79.073 C 90.672 79.096 90.789 79.096 91.023 79.119 C 91.047 79.354 91.047 79.47 91.07 79.728 C 90.368 79.658 89.993 79.635 89.22 79.611 Z" style=""/>
  <path class="cls-2" d="M 68.686 88.603 L 68.686 87.806 L 68.288 87.806 L 68.288 87.01 L 67.89 87.01 L 67.89 84.598 L 68.311 84.598 L 68.311 83.779 L 68.732 83.779 L 68.732 82.96 L 69.95 82.96 L 69.95 83.779 L 70.348 83.779 L 70.348 84.598 L 70.746 84.598 C 70.746 85.558 70.723 86.05 70.723 87.01 L 70.325 87.01 C 70.325 87.338 70.325 87.479 70.301 87.806 L 69.903 87.806 C 69.903 88.134 69.903 88.274 69.88 88.603 L 68.686 88.603 Z M 69.083 87.806 L 69.88 87.806 C 69.903 86.542 69.903 85.91 69.927 84.598 L 69.528 84.598 L 69.528 83.779 L 68.709 83.779 C 68.709 85.09 68.709 85.723 68.686 87.01 L 69.083 87.01 C 69.107 87.338 69.083 87.502 69.083 87.806 Z" style=""/>
  <path class="cls-2" d="M 71.472 88.556 C 71.472 88.251 71.496 88.087 71.496 87.759 C 71.823 87.759 71.963 87.759 72.291 87.736 C 72.338 86.472 72.338 85.839 72.362 84.575 L 71.963 84.575 L 71.963 83.779 L 72.362 83.779 L 72.362 82.96 L 73.158 82.96 C 73.134 84.903 73.111 85.863 73.041 87.736 C 73.345 87.736 73.509 87.713 73.813 87.713 C 73.813 88.017 73.79 88.181 73.79 88.485 C 72.877 88.509 72.408 88.532 71.472 88.556 Z" style=""/>
  <path class="cls-2" d="M 74.961 88.415 C 74.984 88.111 74.984 87.946 75.008 87.642 C 74.882 87.638 74.757 87.646 74.633 87.666 C 74.657 87.361 74.657 87.198 74.657 86.893 C 74.524 86.889 74.39 86.897 74.258 86.916 C 74.282 85.98 74.305 85.511 74.329 84.552 L 74.726 84.552 C 74.726 84.247 74.726 84.083 74.75 83.755 L 75.148 83.755 C 75.148 83.428 75.148 83.287 75.171 82.96 C 75.64 82.96 75.874 82.96 76.342 82.936 C 76.342 83.264 76.342 83.404 76.319 83.732 L 76.693 83.732 C 76.693 84.037 76.693 84.2 76.67 84.505 L 77.045 84.505 C 77.021 85.442 76.998 85.91 76.951 86.823 C 76.826 86.819 76.7 86.827 76.576 86.847 C 76.553 87.151 76.553 87.314 76.529 87.619 C 76.389 87.619 76.295 87.642 76.155 87.642 C 76.132 87.946 76.132 88.111 76.108 88.392 C 75.725 88.376 75.342 88.384 74.961 88.415 Z M 75.382 87.619 C 75.687 87.595 75.85 87.595 76.155 87.572 C 76.225 86.355 76.248 85.723 76.295 84.481 L 75.897 84.481 C 75.897 84.177 75.897 84.013 75.921 83.685 C 75.616 83.685 75.452 83.685 75.148 83.708 C 75.124 84.973 75.101 85.605 75.055 86.847 C 75.18 86.851 75.305 86.843 75.429 86.823 C 75.406 87.174 75.406 87.314 75.382 87.619 Z" style=""/>
  <path class="cls-2" d="M 77.981 88.228 C 78.005 87.923 78.005 87.783 78.028 87.479 C 77.888 87.479 77.794 87.502 77.653 87.502 C 77.677 87.198 77.677 87.057 77.7 86.753 C 77.575 86.749 77.449 86.756 77.326 86.776 C 77.372 85.863 77.396 85.395 77.419 84.481 L 77.794 84.481 C 77.794 84.177 77.818 84.013 77.818 83.708 L 78.192 83.708 C 78.192 83.404 78.192 83.241 78.216 82.936 C 78.684 82.936 78.895 82.936 79.363 82.913 C 79.363 83.217 79.363 83.381 79.339 83.685 L 79.714 83.685 C 79.714 83.99 79.69 84.13 79.69 84.434 C 79.816 84.439 79.941 84.431 80.065 84.411 C 80.018 85.301 79.995 85.769 79.948 86.635 C 79.808 86.635 79.737 86.659 79.574 86.659 C 79.55 86.963 79.55 87.104 79.527 87.408 C 79.386 87.408 79.316 87.432 79.152 87.432 C 79.129 87.736 79.129 87.877 79.082 88.181 C 78.714 88.162 78.346 88.178 77.981 88.228 Z M 78.426 87.455 C 78.73 87.432 78.871 87.432 79.175 87.408 C 79.269 86.214 79.293 85.629 79.363 84.411 C 79.237 84.407 79.112 84.415 78.988 84.434 C 78.988 84.13 79.011 83.966 79.011 83.662 C 78.707 83.662 78.567 83.662 78.262 83.685 C 78.239 84.926 78.192 85.535 78.122 86.729 C 78.262 86.729 78.356 86.706 78.496 86.706 C 78.46 86.954 78.437 87.204 78.426 87.455 Z" style=""/>
  <path class="cls-2" d="M 80.908 87.97 C 80.932 87.689 80.955 87.549 80.978 87.244 C 80.838 87.244 80.767 87.268 80.627 87.268 C 80.651 86.987 80.674 86.823 80.698 86.542 C 80.557 86.542 80.487 86.565 80.323 86.565 C 80.393 85.676 80.416 85.231 80.463 84.341 C 80.589 84.345 80.714 84.337 80.838 84.318 C 80.861 84.013 80.861 83.873 80.861 83.568 L 81.236 83.568 C 81.236 83.264 81.259 83.123 81.259 82.819 C 81.704 82.819 81.915 82.795 82.36 82.795 C 82.36 83.1 82.336 83.241 82.336 83.521 C 82.454 83.525 82.572 83.517 82.688 83.498 C 82.688 83.779 82.664 83.943 82.664 84.224 C 82.781 84.227 82.899 84.22 83.015 84.2 C 82.969 85.067 82.922 85.488 82.851 86.331 C 82.711 86.331 82.641 86.355 82.5 86.355 C 82.477 86.635 82.454 86.776 82.43 87.057 C 82.314 87.076 82.196 87.084 82.079 87.08 C 82.056 87.361 82.032 87.502 82.009 87.783 C 81.648 87.879 81.28 87.942 80.908 87.97 Z M 81.353 87.221 C 81.634 87.198 81.775 87.174 82.056 87.151 C 82.172 86.003 82.219 85.442 82.29 84.271 C 82.172 84.267 82.054 84.274 81.938 84.294 C 81.962 84.013 81.962 83.849 81.962 83.568 C 81.681 83.568 81.517 83.592 81.236 83.592 C 81.189 84.786 81.166 85.371 81.072 86.542 C 81.212 86.542 81.283 86.518 81.424 86.518 C 81.386 86.751 81.363 86.985 81.353 87.221 Z" style=""/>
  <path class="cls-2" d="M 83.741 87.666 C 83.788 87.385 83.788 87.244 83.835 86.987 C 83.694 87.01 83.624 87.01 83.484 87.034 C 83.507 86.753 83.531 86.612 83.554 86.331 C 83.438 86.35 83.32 86.358 83.202 86.355 C 83.296 85.511 83.32 85.09 83.367 84.224 C 83.484 84.227 83.602 84.22 83.718 84.2 C 83.741 83.92 83.741 83.779 83.765 83.498 C 83.882 83.502 84 83.494 84.116 83.474 C 84.139 83.194 84.139 83.053 84.139 82.772 C 84.561 82.772 84.772 82.749 85.193 82.749 C 85.193 83.029 85.17 83.17 85.17 83.451 C 85.287 83.455 85.405 83.447 85.521 83.428 C 85.497 83.708 85.497 83.849 85.474 84.13 C 85.591 84.134 85.709 84.126 85.825 84.107 C 85.778 84.926 85.731 85.324 85.638 86.144 C 85.522 86.163 85.404 86.171 85.287 86.167 C 85.267 86.395 85.236 86.622 85.193 86.847 C 85.052 86.869 84.982 86.869 84.842 86.893 C 84.818 87.151 84.795 87.291 84.748 87.572 C 84.41 87.568 84.073 87.599 83.741 87.666 Z M 84.163 86.94 C 84.444 86.916 84.584 86.893 84.842 86.869 C 84.982 85.793 85.029 85.231 85.099 84.13 C 84.982 84.126 84.864 84.134 84.748 84.153 C 84.772 83.873 84.772 83.732 84.795 83.451 C 84.514 83.451 84.373 83.474 84.093 83.474 C 84.046 84.622 83.999 85.184 83.882 86.284 C 83.998 86.265 84.115 86.257 84.233 86.261 C 84.21 86.518 84.186 86.659 84.163 86.94 Z" style=""/>
  <path class="cls-2" d="M 86.106 87.338 C 86.149 87.121 86.18 86.902 86.2 86.682 C 86.42 86.663 86.639 86.631 86.855 86.589 C 87.02 85.558 87.066 85.02 87.16 83.966 C 87.02 83.966 86.949 83.99 86.832 83.99 C 86.855 83.732 86.855 83.592 86.879 83.311 C 86.989 83.315 87.099 83.307 87.207 83.287 C 87.226 83.061 87.234 82.835 87.23 82.608 C 87.487 82.608 87.628 82.585 87.909 82.585 C 87.873 83.888 87.74 85.187 87.511 86.472 C 87.731 86.452 87.95 86.421 88.166 86.378 C 88.12 86.635 88.097 86.753 88.05 87.01 C 87.277 87.174 86.879 87.221 86.106 87.338 Z" style=""/>
  <path class="cls-2" d="M 88.986 86.893 C 89.033 86.659 89.056 86.542 89.103 86.284 C 88.986 86.308 88.916 86.308 88.799 86.331 C 88.841 86.13 88.873 85.927 88.892 85.723 C 88.776 85.746 88.705 85.746 88.565 85.769 C 88.682 85.02 88.729 84.645 88.799 83.873 C 88.916 83.873 88.986 83.849 89.127 83.849 C 89.15 83.592 89.15 83.474 89.174 83.217 C 89.283 83.22 89.393 83.212 89.502 83.194 C 89.525 82.936 89.525 82.819 89.548 82.562 C 89.923 82.538 90.134 82.538 90.508 82.515 C 90.485 82.749 90.485 82.889 90.461 83.123 C 90.564 83.127 90.665 83.119 90.766 83.1 C 90.742 83.334 90.742 83.451 90.719 83.708 C 90.836 83.708 90.906 83.685 91.023 83.685 C 90.974 84.276 90.888 84.862 90.766 85.442 C 90.648 85.465 90.579 85.465 90.461 85.488 L 90.344 86.074 C 90.227 86.097 90.157 86.097 90.04 86.121 L 89.923 86.706 C 89.548 86.776 89.361 86.823 88.986 86.893 Z M 89.408 86.237 C 89.665 86.19 89.782 86.19 90.016 86.144 C 90.181 85.356 90.298 84.558 90.368 83.755 C 90.251 83.755 90.181 83.779 90.063 83.779 C 90.087 83.545 90.087 83.404 90.11 83.17 C 89.853 83.194 89.735 83.194 89.478 83.217 C 89.408 84.224 89.337 84.716 89.197 85.699 C 89.314 85.676 89.384 85.676 89.502 85.652 C 89.478 85.863 89.455 85.98 89.408 86.237 Z" style=""/>
  <path class="cls-2" d="M 68.545 97.336 C 68.545 97.055 68.545 96.915 68.569 96.61 L 68.194 96.61 L 68.194 95.884 L 67.819 95.884 C 67.819 95.018 67.843 94.573 67.843 93.66 L 68.217 93.66 L 68.217 92.91 L 68.615 92.91 L 68.615 92.161 C 69.083 92.161 69.318 92.161 69.786 92.138 C 69.786 92.443 69.786 92.583 69.763 92.887 L 70.137 92.887 C 70.137 93.192 70.114 93.332 70.114 93.636 C 70.239 93.641 70.365 93.633 70.488 93.613 C 70.465 94.503 70.442 94.948 70.395 95.814 C 70.269 95.811 70.144 95.819 70.02 95.837 C 70.02 96.118 69.997 96.283 69.997 96.563 C 69.872 96.56 69.746 96.568 69.622 96.587 C 69.622 96.868 69.599 97.008 69.599 97.313 C 69.201 97.336 68.967 97.336 68.545 97.336 Z M 68.92 96.61 C 69.224 96.61 69.365 96.587 69.646 96.587 C 69.693 95.439 69.716 94.854 69.739 93.66 L 69.365 93.66 C 69.365 93.356 69.365 93.215 69.388 92.91 C 69.083 92.91 68.92 92.91 68.615 92.934 C 68.592 94.152 68.592 94.737 68.569 95.908 L 68.943 95.908 C 68.92 96.189 68.92 96.329 68.92 96.61 Z" style=""/>
  <path class="cls-2" d="M 71.051 97.219 C 71.074 96.938 71.074 96.797 71.097 96.516 C 71.378 96.493 71.542 96.493 71.823 96.47 C 71.917 95.323 71.94 94.76 72.01 93.567 C 71.87 93.567 71.776 93.589 71.636 93.589 C 71.659 93.285 71.659 93.145 71.683 92.841 C 71.808 92.844 71.933 92.836 72.057 92.817 C 72.081 92.512 72.081 92.372 72.104 92.068 C 72.408 92.044 72.573 92.044 72.854 92.021 C 72.736 93.824 72.689 94.69 72.526 96.399 C 72.807 96.376 72.947 96.353 73.228 96.329 C 73.205 96.61 73.181 96.75 73.158 97.032 C 72.338 97.125 71.917 97.149 71.051 97.219 Z" style=""/>
  <path class="cls-2" d="M 74.235 96.891 C 74.258 96.61 74.282 96.47 74.329 96.189 C 74.188 96.212 74.118 96.212 73.978 96.236 C 74.001 95.955 74.024 95.814 74.047 95.533 C 73.907 95.557 73.837 95.557 73.696 95.58 C 73.79 94.737 73.813 94.292 73.884 93.426 C 74.024 93.426 74.094 93.402 74.258 93.402 C 74.282 93.122 74.305 92.957 74.329 92.677 C 74.469 92.677 74.563 92.653 74.703 92.653 C 74.726 92.372 74.75 92.208 74.773 91.904 C 75.218 91.857 75.452 91.857 75.874 91.81 C 75.85 92.091 75.827 92.255 75.803 92.536 C 75.944 92.512 76.015 92.512 76.155 92.489 C 76.132 92.77 76.108 92.934 76.085 93.215 C 76.225 93.192 76.295 93.192 76.436 93.168 C 76.342 94.034 76.272 94.456 76.155 95.276 C 76.015 95.299 75.944 95.299 75.803 95.323 C 75.757 95.604 75.757 95.744 75.71 96.025 C 75.569 96.048 75.499 96.048 75.359 96.071 C 75.312 96.353 75.312 96.493 75.265 96.75 C 74.844 96.821 74.633 96.844 74.235 96.891 Z M 74.657 96.165 C 74.937 96.118 75.078 96.118 75.359 96.071 C 75.499 94.971 75.569 94.386 75.71 93.238 C 75.569 93.262 75.499 93.262 75.359 93.285 C 75.382 93.004 75.406 92.864 75.429 92.559 C 75.148 92.583 74.984 92.606 74.703 92.63 C 74.61 93.801 74.539 94.386 74.422 95.51 C 74.563 95.486 74.633 95.486 74.773 95.463 C 74.703 95.744 74.703 95.884 74.657 96.165 Z" style=""/>
  <path class="cls-2" d="M 76.623 96.516 C 76.67 96.259 76.693 96.118 76.74 95.837 L 77.419 95.72 C 77.606 94.643 77.7 94.081 77.864 92.957 C 77.724 92.981 77.653 92.981 77.513 93.004 C 77.56 92.723 77.56 92.583 77.606 92.302 C 77.747 92.278 77.818 92.278 77.958 92.255 C 78.005 91.974 78.005 91.833 78.051 91.552 C 78.332 91.506 78.473 91.506 78.754 91.459 C 78.52 93.168 78.403 93.988 78.098 95.604 C 78.319 95.568 78.538 95.521 78.754 95.463 C 78.707 95.72 78.66 95.861 78.613 96.118 C 77.818 96.283 77.419 96.376 76.623 96.516 Z" style=""/>
  <path class="cls-2" d="M 79.246 95.978 C 79.304 95.762 79.35 95.543 79.386 95.323 C 79.644 95.276 79.784 95.229 80.041 95.182 C 80.276 94.152 80.393 93.613 80.604 92.536 C 80.463 92.559 80.393 92.583 80.253 92.606 C 80.299 92.325 80.323 92.208 80.369 91.927 C 80.51 91.904 80.58 91.904 80.721 91.88 C 80.767 91.599 80.791 91.459 80.838 91.201 C 81.119 91.154 81.259 91.131 81.517 91.085 C 81.304 92.417 81.023 93.738 80.674 95.041 C 80.932 94.971 81.049 94.948 81.306 94.878 C 81.236 95.135 81.212 95.252 81.142 95.51 C 80.416 95.674 80.018 95.791 79.246 95.978 Z" style=""/>
  <path class="cls-2" d="M 82.079 95.205 C 82.149 94.971 82.196 94.831 82.266 94.597 C 82.161 94.617 82.06 94.649 81.962 94.69 C 82.027 94.483 82.082 94.271 82.126 94.058 C 82.009 94.081 81.938 94.105 81.798 94.128 C 82.009 93.379 82.079 92.981 82.266 92.185 C 82.407 92.161 82.477 92.138 82.594 92.115 C 82.641 91.857 82.688 91.717 82.735 91.459 C 82.875 91.436 82.945 91.412 83.062 91.389 C 83.109 91.131 83.156 90.991 83.202 90.733 C 83.601 90.663 83.788 90.616 84.186 90.546 C 84.139 90.803 84.093 90.92 84.046 91.178 C 84.163 91.154 84.233 91.131 84.373 91.107 C 84.303 91.365 84.28 91.482 84.21 91.74 C 84.326 91.717 84.397 91.693 84.538 91.67 C 84.326 92.419 84.233 92.794 83.999 93.496 C 83.882 93.543 83.812 93.543 83.694 93.589 C 83.624 93.824 83.577 93.941 83.507 94.199 C 83.39 94.246 83.32 94.246 83.202 94.292 C 83.133 94.526 83.086 94.643 82.992 94.901 C 82.641 95.018 82.454 95.088 82.079 95.205 Z M 82.594 94.48 C 82.851 94.409 82.969 94.362 83.202 94.292 C 83.507 93.332 83.647 92.841 83.905 91.81 C 83.788 91.833 83.718 91.857 83.577 91.88 C 83.635 91.672 83.682 91.461 83.718 91.248 C 83.46 91.295 83.32 91.342 83.062 91.389 C 82.828 92.443 82.711 92.934 82.43 93.941 C 82.534 93.921 82.637 93.889 82.735 93.847 C 82.704 94.062 82.657 94.273 82.594 94.48 Z" style=""/>
  <path class="cls-2" d="M 84.491 94.386 C 84.571 94.194 84.642 93.999 84.701 93.801 C 84.603 93.842 84.501 93.874 84.397 93.894 C 84.491 93.66 84.514 93.543 84.607 93.309 C 84.491 93.356 84.42 93.356 84.303 93.402 C 84.538 92.677 84.654 92.325 84.865 91.576 C 84.982 91.552 85.052 91.529 85.17 91.506 C 85.24 91.272 85.263 91.131 85.333 90.897 C 85.45 90.874 85.521 90.85 85.662 90.827 C 85.731 90.593 85.755 90.452 85.825 90.218 L 86.762 89.984 C 86.692 90.218 86.668 90.335 86.598 90.593 C 86.703 90.572 86.804 90.541 86.902 90.499 C 86.832 90.733 86.785 90.85 86.715 91.085 C 86.819 91.064 86.922 91.032 87.02 90.991 C 86.785 91.693 86.668 92.021 86.387 92.7 L 86.106 92.817 C 86.013 93.051 85.966 93.168 85.872 93.379 L 85.591 93.496 C 85.497 93.73 85.45 93.824 85.357 94.058 C 85.005 94.199 84.842 94.246 84.491 94.386 Z M 85.005 93.707 C 85.24 93.613 85.357 93.589 85.591 93.496 C 85.906 92.739 86.18 91.965 86.41 91.178 C 86.294 91.225 86.223 91.225 86.106 91.272 C 86.176 91.038 86.223 90.92 86.294 90.663 C 86.036 90.733 85.919 90.756 85.662 90.827 C 85.404 91.81 85.24 92.278 84.912 93.215 C 85.029 93.168 85.099 93.168 85.217 93.122 C 85.136 93.313 85.066 93.508 85.005 93.707 Z" style=""/>
  <path class="cls-2" d="M 86.481 93.589 C 86.557 93.405 86.643 93.226 86.738 93.051 C 86.973 92.957 87.066 92.91 87.3 92.817 C 87.643 92.108 87.948 91.38 88.213 90.64 C 88.097 90.686 88.026 90.686 87.932 90.733 C 88.026 90.499 88.05 90.382 88.12 90.171 C 88.224 90.151 88.326 90.119 88.424 90.077 C 88.494 89.843 88.541 89.726 88.611 89.516 C 88.845 89.445 88.963 89.422 89.197 89.351 C 88.841 90.467 88.387 91.548 87.839 92.583 L 88.378 92.349 C 88.26 92.559 88.213 92.653 88.097 92.841 C 87.464 93.145 87.136 93.309 86.481 93.589 Z" style=""/>
  <path class="cls-2" d="M 68.288 105.086 C 68.288 104.852 68.311 104.712 68.311 104.454 L 68.007 104.454 C 68.003 104.243 68.01 104.032 68.03 103.822 L 67.702 103.822 C 67.725 103.049 67.725 102.675 67.725 101.879 L 68.053 101.879 C 68.05 101.66 68.057 101.441 68.077 101.223 L 68.428 101.223 C 68.428 100.966 68.428 100.825 68.451 100.544 C 68.873 100.521 69.06 100.521 69.481 100.497 C 69.462 100.723 69.454 100.949 69.458 101.176 C 69.599 101.176 69.669 101.153 69.786 101.153 C 69.763 101.41 69.763 101.551 69.739 101.808 C 69.88 101.808 69.927 101.785 70.067 101.785 C 70.02 102.581 69.973 102.956 69.927 103.728 C 69.809 103.728 69.739 103.752 69.622 103.752 C 69.599 104.009 69.599 104.127 69.575 104.384 C 69.458 104.384 69.388 104.407 69.271 104.407 C 69.248 104.665 69.248 104.782 69.224 105.04 C 68.849 105.063 68.662 105.063 68.288 105.086 Z M 68.639 104.454 C 68.873 104.431 69.014 104.431 69.248 104.407 C 69.318 103.401 69.341 102.885 69.412 101.832 C 69.302 101.827 69.192 101.836 69.083 101.855 C 69.083 101.598 69.107 101.457 69.107 101.2 C 68.881 101.219 68.655 101.227 68.428 101.223 C 68.404 102.3 68.381 102.815 68.335 103.822 C 68.436 103.826 68.538 103.818 68.639 103.799 L 68.639 104.454 Z" style=""/>
  <path class="cls-2" d="M 70.395 104.899 C 70.418 104.665 70.442 104.524 70.465 104.29 C 70.699 104.267 70.817 104.243 71.074 104.196 C 71.191 103.213 71.261 102.698 71.378 101.645 C 71.261 101.668 71.191 101.668 71.051 101.692 C 71.074 101.434 71.097 101.293 71.121 101.035 C 71.261 101.012 71.308 101.012 71.449 100.988 C 71.472 100.731 71.496 100.591 71.519 100.333 C 71.776 100.31 71.917 100.286 72.175 100.263 C 71.987 101.855 71.894 102.628 71.683 104.103 L 72.268 103.986 C 72.226 104.187 72.194 104.39 72.175 104.594 C 71.449 104.735 71.097 104.806 70.395 104.899 Z" style=""/>
  <path class="cls-2" d="M 73.017 104.384 C 73.064 104.15 73.087 104.033 73.134 103.775 C 73.017 103.799 72.947 103.822 72.854 103.845 C 72.9 103.611 72.924 103.47 72.97 103.237 C 72.854 103.26 72.783 103.283 72.666 103.307 C 72.783 102.558 72.854 102.183 72.97 101.41 C 73.087 101.387 73.158 101.387 73.299 101.363 C 73.341 101.147 73.373 100.928 73.392 100.708 C 73.509 100.684 73.579 100.684 73.72 100.661 C 73.762 100.444 73.794 100.225 73.813 100.005 C 74.211 99.935 74.399 99.912 74.773 99.818 C 74.726 100.076 74.703 100.216 74.657 100.474 C 74.773 100.45 74.844 100.427 74.961 100.403 C 74.914 100.661 74.89 100.778 74.844 101.035 C 74.961 101.012 75.031 100.988 75.148 100.966 C 74.984 101.714 74.914 102.089 74.726 102.815 C 74.61 102.838 74.563 102.862 74.445 102.885 C 74.399 103.119 74.352 103.237 74.305 103.494 C 74.208 103.515 74.114 103.546 74.024 103.588 C 73.978 103.822 73.931 103.939 73.884 104.173 C 73.509 104.267 73.345 104.314 73.017 104.384 Z M 73.415 103.728 C 73.65 103.682 73.766 103.635 74.001 103.588 C 74.211 102.628 74.329 102.136 74.516 101.129 C 74.399 101.153 74.329 101.176 74.211 101.2 C 74.258 100.942 74.282 100.825 74.329 100.568 L 73.696 100.684 C 73.533 101.714 73.439 102.23 73.252 103.213 C 73.368 103.19 73.439 103.166 73.556 103.143 C 73.493 103.334 73.446 103.529 73.415 103.728 Z" style=""/>
  <path class="cls-2" d="M 74.961 103.799 C 75.031 103.564 75.055 103.448 75.124 103.213 C 75.359 103.143 75.452 103.096 75.687 103.026 C 75.968 102.089 76.108 101.621 76.342 100.637 C 76.238 100.658 76.136 100.69 76.038 100.731 C 76.096 100.523 76.143 100.312 76.178 100.099 C 76.295 100.076 76.366 100.052 76.483 100.029 C 76.541 99.821 76.588 99.609 76.623 99.397 C 76.881 99.326 76.998 99.303 77.232 99.232 C 76.857 100.731 76.647 101.457 76.202 102.838 C 76.413 102.745 76.529 102.722 76.74 102.628 C 76.684 102.82 76.614 103.008 76.529 103.19 C 76.019 103.425 75.495 103.628 74.961 103.799 Z" style=""/>
  <path class="cls-2" d="M 77.372 102.838 C 77.457 102.657 77.527 102.469 77.583 102.277 C 77.495 102.311 77.41 102.35 77.326 102.394 C 77.419 102.159 77.443 102.066 77.537 101.832 L 77.255 101.949 C 77.49 101.27 77.606 100.919 77.841 100.193 C 77.958 100.146 78.028 100.146 78.122 100.099 C 78.192 99.865 78.239 99.748 78.309 99.49 C 78.426 99.443 78.496 99.443 78.613 99.397 C 78.684 99.163 78.73 99.045 78.801 98.788 C 79.152 98.671 79.339 98.6 79.69 98.484 C 79.631 98.682 79.56 98.878 79.48 99.069 L 79.761 98.952 C 79.667 99.186 79.644 99.303 79.55 99.537 L 79.831 99.42 C 79.574 100.099 79.433 100.45 79.129 101.106 C 79.041 101.14 78.955 101.179 78.871 101.223 C 78.777 101.434 78.73 101.551 78.637 101.761 C 78.543 101.808 78.473 101.832 78.379 101.879 C 78.285 102.089 78.239 102.206 78.145 102.417 C 77.895 102.571 77.638 102.712 77.372 102.838 Z M 77.864 102.159 C 78.042 102.088 78.215 102.002 78.379 101.902 C 78.754 101.035 78.942 100.591 79.269 99.654 L 78.988 99.771 C 79.082 99.537 79.105 99.42 79.199 99.186 C 78.964 99.279 78.848 99.303 78.613 99.397 C 78.309 100.356 78.145 100.825 77.818 101.738 L 78.098 101.621 C 78.005 101.832 77.958 101.925 77.864 102.159 Z" style=""/>
  <path class="cls-2" d="M 79.409 101.738 C 79.505 101.571 79.591 101.399 79.667 101.223 C 79.584 101.275 79.498 101.322 79.409 101.363 C 79.503 101.153 79.574 101.035 79.667 100.825 C 79.577 100.863 79.491 100.91 79.409 100.966 C 79.714 100.31 79.854 99.982 80.112 99.303 L 80.393 99.186 C 80.487 98.952 80.533 98.835 80.627 98.624 L 80.908 98.507 C 81.002 98.273 81.049 98.156 81.142 97.945 C 81.493 97.805 81.657 97.734 81.985 97.594 C 81.891 97.828 81.844 97.921 81.751 98.156 L 82.032 98.039 C 81.956 98.222 81.87 98.402 81.775 98.577 C 81.867 98.544 81.955 98.497 82.032 98.437 C 81.704 99.069 81.54 99.397 81.212 100.005 C 81.135 100.066 81.048 100.113 80.955 100.146 C 80.838 100.356 80.791 100.45 80.674 100.661 C 80.58 100.731 80.533 100.755 80.44 100.825 C 80.323 101.035 80.276 101.129 80.159 101.34 C 79.9 101.453 79.649 101.586 79.409 101.738 Z M 79.925 101.082 C 80.135 100.966 80.229 100.895 80.416 100.778 C 80.861 99.958 81.095 99.537 81.493 98.671 C 81.401 98.703 81.313 98.751 81.236 98.811 C 81.33 98.6 81.377 98.484 81.47 98.249 C 81.259 98.343 81.142 98.39 80.908 98.484 C 80.533 99.397 80.346 99.842 79.925 100.684 C 80.015 100.647 80.102 100.599 80.182 100.544 C 80.088 100.778 80.018 100.872 79.925 101.082 Z" style=""/>
  <path class="cls-2" d="M 81.072 100.661 C 81.189 100.474 81.259 100.38 81.377 100.169 C 81.538 100.068 81.694 99.958 81.844 99.842 C 82.36 99.069 82.594 98.671 83.062 97.851 C 82.969 97.898 82.898 97.945 82.805 97.992 C 82.922 97.781 82.969 97.687 83.086 97.476 C 83.174 97.435 83.26 97.388 83.343 97.336 C 83.46 97.125 83.507 97.032 83.624 96.821 C 83.835 96.704 83.952 96.657 84.163 96.54 C 83.614 97.567 83.005 98.56 82.336 99.514 C 82.523 99.373 82.617 99.303 82.781 99.163 C 82.641 99.35 82.57 99.443 82.43 99.607 C 81.891 100.052 81.634 100.263 81.072 100.661 Z" style=""/>
  <path class="cls-2" d="M 82.875 99.256 C 83.015 99.069 83.086 98.998 83.226 98.811 C 83.414 98.671 83.484 98.6 83.671 98.437 C 84.256 97.734 84.538 97.383 85.076 96.634 C 84.982 96.704 84.936 96.728 84.842 96.797 C 84.943 96.636 85.052 96.48 85.17 96.329 C 85.263 96.259 85.31 96.236 85.404 96.165 C 85.521 95.978 85.591 95.884 85.731 95.674 C 85.942 95.557 86.036 95.486 86.223 95.369 C 85.6 96.326 84.895 97.227 84.116 98.062 C 84.28 97.921 84.373 97.828 84.538 97.687 L 84.139 98.086 C 83.624 98.553 83.39 98.788 82.875 99.256 Z" style=""/>
</svg>